<?xml version="1.0" encoding="UTF-8"?>
<svg xmlns="http://www.w3.org/2000/svg" xmlns:xlink="http://www.w3.org/1999/xlink" width="224.87999pt" height="337.499995pt" viewBox="0 0 224.87999 337.499995" version="1.2">
  <defs>
    <clipPath id="clip1-back">
      <path d="M 1 0 L 224 0 L 224 337 L 1 337 Z M 1 0 " />
    </clipPath>
    <clipPath id="clip2-back">
      <path d="M 147.636719 34.828125 L 194.816406 34.828125 L 194.816406 89.496094 L 147.636719 89.496094 Z M 147.636719 34.828125 " />
    </clipPath>
    <clipPath id="clip3-back">
      <path d="M 22.574219 244.136719 L 74.996094 244.136719 L 74.996094 298.808594 L 22.574219 298.808594 Z M 22.574219 244.136719 " />
    </clipPath>
    <clipPath id="clip4-back">
      <path d="M 66 269 L 74.996094 269 L 74.996094 279 L 66 279 Z M 66 269 " />
    </clipPath>
  </defs>
  <g id="surface1-back">
    <path style=" stroke:none;fill-rule:nonzero;fill:rgb(23.919678%,27.839661%,37.649536%);fill-opacity:1;" d="M 192.03125 331.34375 L 33.265625 331.34375 C 19.125 331.34375 7.601562 319.839844 7.601562 305.71875 L 7.601562 31.402344 C 7.601562 17.28125 19.125 5.777344 33.265625 5.777344 L 192.03125 5.777344 C 206.175781 5.777344 217.699219 17.28125 217.699219 31.402344 L 217.699219 305.71875 C 217.699219 319.839844 206.175781 331.34375 192.03125 331.34375 Z M 192.03125 331.34375 " class="background" />
    <g clip-path="url(#clip1-back)" clip-rule="nonzero">
      <path style=" stroke:none;fill-rule:nonzero;fill:rgb(23.919678%,27.839661%,37.649536%);fill-opacity:1;" d="M 197.785156 337.503906 L 27.535156 337.503906 C 13.394531 337.503906 1.871094 325.984375 1.871094 311.851562 L 1.871094 25.65625 C 1.871094 11.519531 13.394531 0.00390625 27.535156 0.00390625 L 197.785156 0.00390625 C 211.925781 0.00390625 223.449219 11.519531 223.449219 25.65625 L 223.449219 311.851562 C 223.449219 325.984375 211.925781 337.503906 197.785156 337.503906 Z M 197.785156 337.503906 " />
    </g>
    <g clip-path="url(#clip2-back)" clip-rule="nonzero">
      <path style=" stroke:none;fill-rule:nonzero;fill:rgb(49.409485%,66.268921%,69.40918%);fill-opacity:1;" d="M 171.226562 34.835938 C 158.203125 34.835938 147.644531 45.449219 147.644531 58.539062 L 147.644531 84.140625 C 147.644531 87.105469 149.402344 89.507812 151.574219 89.507812 C 153.742188 89.507812 155.503906 87.105469 155.503906 84.140625 C 155.503906 87.105469 157.261719 89.507812 159.433594 89.507812 C 161.601562 89.507812 163.363281 87.105469 163.363281 84.140625 C 163.363281 87.105469 165.121094 89.507812 167.292969 89.507812 C 169.460938 89.507812 171.222656 87.105469 171.222656 84.140625 C 171.222656 87.105469 172.980469 89.507812 175.152344 89.507812 C 177.320312 89.507812 179.078125 87.105469 179.078125 84.140625 C 179.078125 87.105469 180.839844 89.507812 183.007812 89.507812 C 185.179688 89.507812 186.9375 87.105469 186.9375 84.140625 C 186.9375 87.105469 188.699219 89.507812 190.867188 89.507812 C 193.039062 89.507812 194.796875 87.105469 194.796875 84.140625 L 194.796875 58.539062 C 194.808594 45.449219 184.25 34.835938 171.226562 34.835938 Z M 171.226562 34.835938 " />
    </g>
    <path style=" stroke:none;fill-rule:nonzero;fill:rgb(100%,100%,100%);fill-opacity:1;" d="M 168.09375 57.757812 C 168.09375 58.109375 168.058594 58.460938 167.988281 58.808594 C 167.921875 59.15625 167.820312 59.496094 167.683594 59.824219 C 167.550781 60.148438 167.382812 60.460938 167.1875 60.757812 C 166.992188 61.050781 166.769531 61.324219 166.519531 61.574219 C 166.269531 61.824219 166 62.050781 165.707031 62.246094 C 165.410156 62.445312 165.101562 62.609375 164.777344 62.746094 C 164.449219 62.882812 164.113281 62.984375 163.769531 63.054688 C 163.421875 63.121094 163.074219 63.15625 162.71875 63.15625 C 162.367188 63.15625 162.019531 63.121094 161.671875 63.054688 C 161.324219 62.984375 160.988281 62.882812 160.664062 62.746094 C 160.339844 62.609375 160.027344 62.445312 159.734375 62.246094 C 159.441406 62.050781 159.171875 61.824219 158.921875 61.574219 C 158.671875 61.324219 158.449219 61.050781 158.253906 60.757812 C 158.054688 60.460938 157.890625 60.148438 157.757812 59.824219 C 157.621094 59.496094 157.519531 59.15625 157.449219 58.808594 C 157.382812 58.460938 157.347656 58.109375 157.347656 57.757812 C 157.347656 57.402344 157.382812 57.050781 157.449219 56.703125 C 157.519531 56.355469 157.621094 56.015625 157.757812 55.6875 C 157.890625 55.363281 158.054688 55.050781 158.253906 54.753906 C 158.449219 54.460938 158.671875 54.1875 158.921875 53.9375 C 159.171875 53.6875 159.441406 53.460938 159.734375 53.265625 C 160.027344 53.070312 160.339844 52.902344 160.664062 52.765625 C 160.988281 52.632812 161.324219 52.527344 161.671875 52.460938 C 162.019531 52.390625 162.367188 52.355469 162.71875 52.355469 C 163.074219 52.355469 163.421875 52.390625 163.769531 52.460938 C 164.113281 52.527344 164.449219 52.632812 164.777344 52.765625 C 165.101562 52.902344 165.410156 53.070312 165.707031 53.265625 C 166 53.460938 166.269531 53.6875 166.519531 53.9375 C 166.769531 54.1875 166.992188 54.460938 167.1875 54.753906 C 167.382812 55.050781 167.550781 55.363281 167.683594 55.6875 C 167.820312 56.015625 167.921875 56.355469 167.988281 56.703125 C 168.058594 57.050781 168.09375 57.402344 168.09375 57.757812 Z M 168.09375 57.757812 " />
    <path style=" stroke:none;fill-rule:nonzero;fill:rgb(18.818665%,20.388794%,23.139954%);fill-opacity:1;" d="M 162.746094 58.585938 C 162.746094 58.941406 162.691406 59.28125 162.578125 59.609375 C 162.46875 59.933594 162.308594 60.222656 162.101562 60.472656 C 161.894531 60.722656 161.660156 60.917969 161.390625 61.050781 C 161.121094 61.1875 160.839844 61.253906 160.550781 61.253906 C 160.257812 61.253906 159.976562 61.1875 159.710938 61.050781 C 159.441406 60.917969 159.203125 60.722656 158.996094 60.472656 C 158.789062 60.222656 158.632812 59.933594 158.519531 59.609375 C 158.410156 59.28125 158.351562 58.941406 158.351562 58.585938 C 158.351562 58.234375 158.410156 57.894531 158.519531 57.566406 C 158.632812 57.238281 158.789062 56.949219 158.996094 56.699219 C 159.203125 56.449219 159.441406 56.257812 159.710938 56.121094 C 159.976562 55.988281 160.257812 55.917969 160.550781 55.917969 C 160.839844 55.917969 161.121094 55.988281 161.390625 56.121094 C 161.660156 56.257812 161.894531 56.449219 162.101562 56.699219 C 162.308594 56.949219 162.46875 57.238281 162.578125 57.566406 C 162.691406 57.894531 162.746094 58.234375 162.746094 58.585938 Z M 162.746094 58.585938 " />
    <path style=" stroke:none;fill-rule:nonzero;fill:rgb(100%,100%,100%);fill-opacity:1;" d="M 185.398438 57.757812 C 185.398438 58.109375 185.367188 58.460938 185.296875 58.808594 C 185.226562 59.15625 185.125 59.496094 184.992188 59.824219 C 184.855469 60.148438 184.691406 60.460938 184.496094 60.757812 C 184.296875 61.050781 184.074219 61.324219 183.824219 61.574219 C 183.578125 61.824219 183.304688 62.050781 183.011719 62.246094 C 182.71875 62.445312 182.410156 62.609375 182.082031 62.746094 C 181.757812 62.882812 181.421875 62.984375 181.074219 63.054688 C 180.730469 63.121094 180.378906 63.15625 180.027344 63.15625 C 179.675781 63.15625 179.324219 63.121094 178.976562 63.054688 C 178.632812 62.984375 178.296875 62.882812 177.96875 62.746094 C 177.644531 62.609375 177.335938 62.445312 177.042969 62.246094 C 176.75 62.050781 176.476562 61.824219 176.226562 61.574219 C 175.976562 61.324219 175.753906 61.050781 175.558594 60.757812 C 175.363281 60.460938 175.199219 60.148438 175.0625 59.824219 C 174.925781 59.496094 174.824219 59.15625 174.757812 58.808594 C 174.6875 58.460938 174.652344 58.109375 174.652344 57.757812 C 174.652344 57.402344 174.6875 57.050781 174.757812 56.703125 C 174.824219 56.355469 174.925781 56.015625 175.0625 55.6875 C 175.199219 55.363281 175.363281 55.050781 175.558594 54.753906 C 175.753906 54.460938 175.976562 54.1875 176.226562 53.9375 C 176.476562 53.6875 176.75 53.460938 177.042969 53.265625 C 177.335938 53.070312 177.644531 52.902344 177.96875 52.765625 C 178.296875 52.632812 178.632812 52.527344 178.976562 52.460938 C 179.324219 52.390625 179.675781 52.355469 180.027344 52.355469 C 180.378906 52.355469 180.730469 52.390625 181.074219 52.460938 C 181.421875 52.527344 181.757812 52.632812 182.082031 52.765625 C 182.410156 52.902344 182.71875 53.070312 183.011719 53.265625 C 183.304688 53.460938 183.578125 53.6875 183.824219 53.9375 C 184.074219 54.1875 184.296875 54.460938 184.496094 54.753906 C 184.691406 55.050781 184.855469 55.363281 184.992188 55.6875 C 185.125 56.015625 185.226562 56.355469 185.296875 56.703125 C 185.367188 57.050781 185.398438 57.402344 185.398438 57.757812 Z M 185.398438 57.757812 " />
    <path style=" stroke:none;fill-rule:nonzero;fill:rgb(18.818665%,20.388794%,23.139954%);fill-opacity:1;" d="M 180.308594 58.585938 C 180.308594 58.941406 180.253906 59.28125 180.140625 59.609375 C 180.03125 59.933594 179.871094 60.222656 179.664062 60.472656 C 179.460938 60.722656 179.222656 60.917969 178.953125 61.050781 C 178.683594 61.1875 178.402344 61.253906 178.113281 61.253906 C 177.820312 61.253906 177.539062 61.1875 177.273438 61.050781 C 177.003906 60.917969 176.765625 60.722656 176.558594 60.472656 C 176.351562 60.222656 176.195312 59.933594 176.082031 59.609375 C 175.972656 59.28125 175.914062 58.941406 175.914062 58.585938 C 175.914062 58.234375 175.972656 57.894531 176.082031 57.566406 C 176.195312 57.238281 176.351562 56.949219 176.558594 56.699219 C 176.765625 56.449219 177.003906 56.257812 177.273438 56.121094 C 177.539062 55.988281 177.820312 55.917969 178.113281 55.917969 C 178.402344 55.917969 178.683594 55.988281 178.953125 56.121094 C 179.222656 56.257812 179.460938 56.449219 179.664062 56.699219 C 179.871094 56.949219 180.03125 57.238281 180.140625 57.566406 C 180.253906 57.894531 180.308594 58.234375 180.308594 58.585938 Z M 180.308594 58.585938 " />
    <path style=" stroke:none;fill-rule:nonzero;fill:rgb(18.818665%,20.388794%,23.139954%);fill-opacity:1;" d="M 161.417969 69.042969 C 161.164062 70.417969 161.335938 72.074219 162.695312 72.820312 C 163.734375 73.386719 165.054688 73.121094 165.777344 72.183594 C 166.15625 71.695312 166.328125 71.070312 166.582031 70.511719 C 166.71875 70.210938 166.992188 69.421875 167.367188 69.347656 C 168.070312 69.207031 168.738281 69.933594 169 70.476562 C 169.550781 71.605469 170.070312 73.304688 171.644531 73.140625 C 172.8125 73.019531 173.28125 71.808594 173.683594 70.871094 C 173.75 70.71875 174 69.9375 174.199219 69.785156 C 175.21875 69.007812 175.621094 69.644531 176.019531 70.285156 C 176.394531 70.882812 176.605469 71.578125 177.0625 72.128906 C 179.136719 74.640625 181.71875 71.5 181.386719 69.136719 C 181.300781 68.527344 180.378906 68.789062 180.464844 69.394531 C 180.605469 70.414062 179.851562 72.382812 178.519531 72.042969 C 177.847656 71.871094 177.527344 71.097656 177.234375 70.550781 C 176.796875 69.726562 176.363281 68.78125 175.402344 68.472656 C 174.625 68.21875 173.933594 68.570312 173.457031 69.195312 C 172.859375 69.972656 172.390625 72.945312 170.835938 71.910156 C 169.5 71.015625 169.671875 67.523438 167.183594 68.390625 C 166.417969 68.65625 166.046875 69.386719 165.730469 70.085938 C 165.527344 70.535156 165.394531 71.074219 165.105469 71.480469 C 164.765625 71.949219 164.007812 72.277344 163.433594 72.097656 C 162.191406 71.710938 162.160156 70.261719 162.339844 69.300781 C 162.453125 68.695312 161.53125 68.4375 161.417969 69.042969 Z M 161.417969 69.042969 " />
    <path style=" stroke:none;fill-rule:nonzero;fill:rgb(49.409485%,66.268921%,69.40918%);fill-opacity:1;" d="M 100.320312 228.429688 C 100 228.429688 99.683594 228.460938 99.371094 228.523438 C 99.058594 228.585938 98.753906 228.675781 98.460938 228.800781 C 98.164062 228.921875 97.886719 229.070312 97.621094 229.25 C 97.355469 229.425781 97.109375 229.625 96.882812 229.851562 C 96.660156 230.078125 96.457031 230.324219 96.28125 230.589844 C 96.101562 230.855469 95.953125 231.132812 95.832031 231.429688 C 95.707031 231.722656 95.617188 232.027344 95.554688 232.339844 C 95.492188 232.652344 95.460938 232.96875 95.460938 233.289062 C 95.460938 233.605469 95.492188 233.921875 95.554688 234.234375 C 95.617188 234.550781 95.707031 234.851562 95.832031 235.148438 C 95.953125 235.441406 96.101562 235.722656 96.28125 235.988281 C 96.457031 236.253906 96.660156 236.5 96.882812 236.722656 C 97.109375 236.949219 97.355469 237.152344 97.621094 237.328125 C 97.886719 237.503906 98.164062 237.65625 98.460938 237.777344 C 98.753906 237.898438 99.058594 237.992188 99.371094 238.054688 C 99.683594 238.117188 100 238.148438 100.320312 238.148438 C 100.640625 238.148438 100.957031 238.117188 101.269531 238.054688 C 101.582031 237.992188 101.882812 237.898438 102.179688 237.777344 C 102.472656 237.65625 102.753906 237.503906 103.019531 237.328125 C 103.285156 237.152344 103.53125 236.949219 103.757812 236.722656 C 103.980469 236.5 104.183594 236.253906 104.359375 235.988281 C 104.539062 235.722656 104.6875 235.441406 104.808594 235.148438 C 104.929688 234.851562 105.023438 234.550781 105.085938 234.234375 C 105.148438 233.921875 105.179688 233.605469 105.179688 233.289062 C 105.179688 232.96875 105.148438 232.652344 105.085938 232.339844 C 105.023438 232.027344 104.929688 231.722656 104.808594 231.429688 C 104.6875 231.132812 104.539062 230.855469 104.359375 230.589844 C 104.183594 230.324219 103.980469 230.078125 103.757812 229.851562 C 103.53125 229.625 103.285156 229.425781 103.019531 229.25 C 102.753906 229.070312 102.472656 228.921875 102.179688 228.800781 C 101.882812 228.675781 101.582031 228.585938 101.269531 228.523438 C 100.957031 228.460938 100.640625 228.429688 100.320312 228.429688 Z M 100.320312 228.429688 " />
    <path style=" stroke:none;fill-rule:nonzero;fill:rgb(49.409485%,66.268921%,69.40918%);fill-opacity:1;" d="M 126.730469 178.261719 C 126.332031 178.261719 125.9375 178.300781 125.550781 178.378906 C 125.160156 178.453125 124.78125 178.570312 124.414062 178.722656 C 124.046875 178.875 123.699219 179.058594 123.367188 179.28125 C 123.039062 179.5 122.730469 179.753906 122.449219 180.035156 C 122.167969 180.316406 121.917969 180.621094 121.699219 180.949219 C 121.476562 181.28125 121.289062 181.628906 121.136719 181.996094 C 120.988281 182.363281 120.871094 182.742188 120.792969 183.132812 C 120.714844 183.523438 120.679688 183.914062 120.679688 184.3125 C 120.679688 184.710938 120.714844 185.105469 120.792969 185.492188 C 120.871094 185.882812 120.988281 186.261719 121.136719 186.628906 C 121.289062 186.996094 121.476562 187.34375 121.699219 187.675781 C 121.917969 188.007812 122.167969 188.3125 122.449219 188.59375 C 122.730469 188.875 123.039062 189.125 123.367188 189.347656 C 123.699219 189.566406 124.046875 189.753906 124.414062 189.90625 C 124.78125 190.058594 125.160156 190.171875 125.550781 190.25 C 125.9375 190.328125 126.332031 190.367188 126.730469 190.367188 C 127.128906 190.367188 127.519531 190.328125 127.910156 190.25 C 128.300781 190.171875 128.679688 190.058594 129.046875 189.90625 C 129.414062 189.753906 129.761719 189.566406 130.09375 189.347656 C 130.421875 189.125 130.730469 188.875 131.011719 188.59375 C 131.292969 188.3125 131.542969 188.007812 131.761719 187.675781 C 131.984375 187.34375 132.171875 186.996094 132.320312 186.628906 C 132.472656 186.261719 132.589844 185.882812 132.667969 185.492188 C 132.746094 185.105469 132.78125 184.710938 132.78125 184.3125 C 132.78125 183.914062 132.746094 183.523438 132.667969 183.132812 C 132.589844 182.742188 132.472656 182.363281 132.320312 181.996094 C 132.171875 181.628906 131.984375 181.28125 131.761719 180.949219 C 131.542969 180.621094 131.292969 180.316406 131.011719 180.035156 C 130.730469 179.753906 130.421875 179.5 130.09375 179.28125 C 129.761719 179.058594 129.414062 178.875 129.046875 178.722656 C 128.679688 178.570312 128.300781 178.453125 127.910156 178.378906 C 127.519531 178.300781 127.128906 178.261719 126.730469 178.261719 Z M 126.730469 178.261719 " />
    <path style=" stroke:none;fill-rule:nonzero;fill:rgb(49.409485%,66.268921%,69.40918%);fill-opacity:1;" d="M 154.761719 123.566406 C 154.292969 123.566406 153.832031 123.613281 153.371094 123.703125 C 152.914062 123.796875 152.46875 123.929688 152.035156 124.109375 C 151.601562 124.289062 151.191406 124.507812 150.800781 124.769531 C 150.414062 125.027344 150.054688 125.324219 149.722656 125.65625 C 149.390625 125.984375 149.097656 126.34375 148.835938 126.734375 C 148.578125 127.125 148.355469 127.535156 148.175781 127.964844 C 148 128.398438 147.863281 128.84375 147.773438 129.304688 C 147.679688 129.761719 147.636719 130.226562 147.636719 130.695312 C 147.636719 131.160156 147.679688 131.625 147.773438 132.085938 C 147.863281 132.542969 148 132.988281 148.175781 133.421875 C 148.355469 133.851562 148.578125 134.265625 148.835938 134.652344 C 149.097656 135.042969 149.390625 135.402344 149.722656 135.734375 C 150.054688 136.0625 150.414062 136.359375 150.800781 136.621094 C 151.191406 136.878906 151.601562 137.097656 152.035156 137.277344 C 152.46875 137.457031 152.914062 137.59375 153.371094 137.683594 C 153.832031 137.773438 154.292969 137.820312 154.761719 137.820312 C 155.230469 137.820312 155.695312 137.773438 156.152344 137.683594 C 156.613281 137.59375 157.058594 137.457031 157.488281 137.277344 C 157.921875 137.097656 158.332031 136.878906 158.722656 136.621094 C 159.109375 136.359375 159.46875 136.0625 159.800781 135.734375 C 160.132812 135.402344 160.429688 135.042969 160.6875 134.652344 C 160.949219 134.265625 161.167969 133.851562 161.347656 133.421875 C 161.527344 132.988281 161.660156 132.542969 161.75 132.085938 C 161.84375 131.625 161.890625 131.160156 161.890625 130.695312 C 161.890625 130.226562 161.84375 129.761719 161.75 129.304688 C 161.660156 128.84375 161.527344 128.398438 161.347656 127.964844 C 161.167969 127.535156 160.949219 127.125 160.6875 126.734375 C 160.429688 126.34375 160.132812 125.984375 159.800781 125.65625 C 159.46875 125.324219 159.109375 125.027344 158.722656 124.769531 C 158.332031 124.507812 157.921875 124.289062 157.488281 124.109375 C 157.058594 123.929688 156.613281 123.796875 156.152344 123.703125 C 155.695312 123.613281 155.230469 123.566406 154.761719 123.566406 Z M 154.761719 123.566406 " />
    <g clip-path="url(#clip3-back)" clip-rule="nonzero">
      <path style=" stroke:none;fill-rule:nonzero;fill:rgb(49.409485%,66.268921%,69.40918%);fill-opacity:1;" d="M 51.777344 270.742188 L 74.171875 259.328125 C 74.515625 259.152344 74.640625 258.726562 74.457031 258.390625 C 69.773438 249.890625 60.671875 244.132812 50.226562 244.167969 C 35.308594 244.21875 23.042969 256.269531 22.835938 271.09375 C 22.625 286.355469 35.011719 298.796875 50.324219 298.796875 C 57.726562 298.796875 64.441406 295.894531 69.382812 291.167969 C 69.664062 290.902344 69.671875 290.460938 69.394531 290.191406 L 51.488281 272.625 C 50.914062 272.0625 51.058594 271.109375 51.777344 270.742188 Z M 51.777344 270.742188 " />
    </g>
    <path style=" stroke:none;fill-rule:nonzero;fill:rgb(18.818665%,20.388794%,23.139954%);fill-opacity:1;" d="M 52.261719 258.90625 C 52.261719 259.332031 52.179688 259.742188 52.015625 260.132812 C 51.851562 260.527344 51.621094 260.871094 51.316406 261.171875 C 51.015625 261.472656 50.667969 261.703125 50.273438 261.867188 C 49.878906 262.03125 49.464844 262.109375 49.039062 262.109375 C 48.609375 262.109375 48.199219 262.03125 47.804688 261.867188 C 47.410156 261.703125 47.0625 261.472656 46.757812 261.171875 C 46.457031 260.871094 46.222656 260.527344 46.058594 260.132812 C 45.894531 259.742188 45.816406 259.332031 45.816406 258.90625 C 45.816406 258.484375 45.894531 258.074219 46.058594 257.679688 C 46.222656 257.289062 46.457031 256.941406 46.757812 256.640625 C 47.0625 256.339844 47.410156 256.109375 47.804688 255.949219 C 48.199219 255.785156 48.609375 255.703125 49.039062 255.703125 C 49.464844 255.703125 49.878906 255.785156 50.273438 255.949219 C 50.667969 256.109375 51.015625 256.339844 51.316406 256.640625 C 51.621094 256.941406 51.851562 257.289062 52.015625 257.679688 C 52.179688 258.074219 52.261719 258.484375 52.261719 258.90625 Z M 52.261719 258.90625 " />
    <g clip-path="url(#clip4-back)" clip-rule="nonzero">
      <path style=" stroke:none;fill-rule:nonzero;fill:rgb(18.818665%,20.388794%,23.139954%);fill-opacity:1;" d="M 74.949219 273.898438 C 74.949219 274.175781 74.921875 274.453125 74.867188 274.730469 C 74.8125 275.003906 74.730469 275.269531 74.621094 275.53125 C 74.515625 275.789062 74.382812 276.035156 74.226562 276.269531 C 74.066406 276.5 73.890625 276.714844 73.691406 276.914062 C 73.492188 277.113281 73.273438 277.289062 73.039062 277.445312 C 72.804688 277.601562 72.558594 277.734375 72.296875 277.839844 C 72.035156 277.945312 71.769531 278.027344 71.492188 278.082031 C 71.214844 278.136719 70.9375 278.164062 70.652344 278.164062 C 70.371094 278.164062 70.09375 278.136719 69.816406 278.082031 C 69.539062 278.027344 69.269531 277.945312 69.011719 277.839844 C 68.75 277.734375 68.503906 277.601562 68.265625 277.445312 C 68.03125 277.289062 67.816406 277.113281 67.617188 276.914062 C 67.417969 276.714844 67.238281 276.5 67.082031 276.269531 C 66.925781 276.035156 66.792969 275.789062 66.6875 275.53125 C 66.578125 275.269531 66.496094 275.003906 66.441406 274.730469 C 66.386719 274.453125 66.359375 274.175781 66.359375 273.898438 C 66.359375 273.617188 66.386719 273.339844 66.441406 273.0625 C 66.496094 272.789062 66.578125 272.523438 66.6875 272.261719 C 66.792969 272.003906 66.925781 271.757812 67.082031 271.527344 C 67.238281 271.292969 67.417969 271.078125 67.617188 270.878906 C 67.816406 270.679688 68.03125 270.503906 68.265625 270.347656 C 68.503906 270.191406 68.75 270.0625 69.011719 269.953125 C 69.269531 269.847656 69.539062 269.765625 69.816406 269.710938 C 70.09375 269.65625 70.371094 269.628906 70.652344 269.628906 C 70.9375 269.628906 71.214844 269.65625 71.492188 269.710938 C 71.769531 269.765625 72.035156 269.847656 72.296875 269.953125 C 72.558594 270.0625 72.804688 270.191406 73.039062 270.347656 C 73.273438 270.503906 73.492188 270.679688 73.691406 270.878906 C 73.890625 271.078125 74.066406 271.292969 74.226562 271.527344 C 74.382812 271.757812 74.515625 272.003906 74.621094 272.261719 C 74.730469 272.523438 74.8125 272.789062 74.867188 273.0625 C 74.921875 273.339844 74.949219 273.617188 74.949219 273.898438 Z M 74.949219 273.898438 " />
    </g>
    <path style=" stroke:none;fill-rule:nonzero;fill:rgb(49.409485%,66.268921%,69.40918%);fill-opacity:1;" d="M 70.734375 268.957031 C 70.46875 268.957031 70.203125 268.984375 69.941406 269.035156 C 69.679688 269.089844 69.425781 269.164062 69.179688 269.265625 C 68.933594 269.371094 68.699219 269.496094 68.476562 269.644531 C 68.253906 269.792969 68.050781 269.960938 67.859375 270.148438 C 67.671875 270.335938 67.503906 270.542969 67.355469 270.765625 C 67.207031 270.988281 67.082031 271.222656 66.980469 271.46875 C 66.878906 271.714844 66.800781 271.96875 66.746094 272.230469 C 66.695312 272.492188 66.667969 272.757812 66.667969 273.023438 C 66.667969 273.292969 66.695312 273.554688 66.746094 273.816406 C 66.800781 274.078125 66.878906 274.332031 66.980469 274.582031 C 67.082031 274.828125 67.207031 275.0625 67.355469 275.285156 C 67.503906 275.503906 67.671875 275.710938 67.859375 275.898438 C 68.050781 276.089844 68.253906 276.257812 68.476562 276.40625 C 68.699219 276.554688 68.933594 276.679688 69.179688 276.78125 C 69.425781 276.882812 69.679688 276.960938 69.941406 277.011719 C 70.203125 277.066406 70.46875 277.089844 70.734375 277.089844 C 71.003906 277.089844 71.269531 277.066406 71.53125 277.011719 C 71.792969 276.960938 72.046875 276.882812 72.292969 276.78125 C 72.539062 276.679688 72.773438 276.554688 72.996094 276.40625 C 73.21875 276.257812 73.421875 276.089844 73.613281 275.898438 C 73.800781 275.710938 73.96875 275.503906 74.117188 275.285156 C 74.265625 275.0625 74.390625 274.828125 74.492188 274.582031 C 74.59375 274.332031 74.671875 274.078125 74.722656 273.816406 C 74.777344 273.554688 74.800781 273.292969 74.800781 273.023438 C 74.800781 272.757812 74.777344 272.492188 74.722656 272.230469 C 74.671875 271.96875 74.59375 271.714844 74.492188 271.46875 C 74.390625 271.222656 74.265625 270.988281 74.117188 270.765625 C 73.96875 270.542969 73.800781 270.335938 73.613281 270.148438 C 73.421875 269.960938 73.21875 269.792969 72.996094 269.644531 C 72.773438 269.496094 72.539062 269.371094 72.292969 269.265625 C 72.046875 269.164062 71.792969 269.089844 71.53125 269.035156 C 71.269531 268.984375 71.003906 268.957031 70.734375 268.957031 Z M 70.734375 268.957031 " />
  </g>
</svg>
