<?xml version="1.0" encoding="UTF-8"?>
<svg xmlns="http://www.w3.org/2000/svg" xmlns:xlink="http://www.w3.org/1999/xlink" width="224.87999pt" height="337.499995pt" viewBox="0 0 224.87999 337.499995" version="1.2">
<defs>
<clipPath id="clip1">
  <path d="M 1 0 L 224 0 L 224 337 L 1 337 Z M 1 0 "/>
</clipPath>
<clipPath id="clip2">
  <path d="M 120.675781 177.128906 L 167.945312 177.128906 L 167.945312 231.558594 L 120.675781 231.558594 Z M 120.675781 177.128906 "/>
</clipPath>
<clipPath id="clip3">
  <path d="M 120.675781 105.050781 L 167.945312 105.050781 L 167.945312 159.480469 L 120.675781 159.480469 Z M 120.675781 105.050781 "/>
</clipPath>
<clipPath id="clip4">
  <path d="M 56.65625 105.050781 L 103.925781 105.050781 L 103.925781 159.480469 L 56.65625 159.480469 Z M 56.65625 105.050781 "/>
</clipPath>
<clipPath id="clip5">
  <path d="M 58.679688 177.128906 L 105.945312 177.128906 L 105.945312 231.558594 L 58.679688 231.558594 Z M 58.679688 177.128906 "/>
</clipPath>
</defs>
<g id="surface1">
<g clip-path="url(#clip1)" clip-rule="nonzero">
<path style=" stroke:none;fill-rule:nonzero;fill:rgb(23.919678%,27.839661%,37.649536%);fill-opacity:1;" d="M 197.785156 337.503906 L 27.535156 337.503906 C 13.394531 337.503906 1.871094 325.984375 1.871094 311.851562 L 1.871094 25.65625 C 1.871094 11.519531 13.394531 0.00390625 27.535156 0.00390625 L 197.785156 0.00390625 C 211.925781 0.00390625 223.449219 11.519531 223.449219 25.65625 L 223.449219 311.851562 C 223.449219 325.984375 211.925781 337.503906 197.785156 337.503906 Z M 197.785156 337.503906 "/>
</g>
<path style=" stroke:none;fill-rule:nonzero;fill:rgb(23.919678%,27.839661%,37.649536%);fill-opacity:1;" d="M 192.03125 331.34375 L 33.265625 331.34375 C 19.125 331.34375 7.601562 319.839844 7.601562 305.71875 L 7.601562 31.402344 C 7.601562 17.28125 19.125 5.777344 33.265625 5.777344 L 192.03125 5.777344 C 206.175781 5.777344 217.699219 17.28125 217.699219 31.402344 L 217.699219 305.71875 C 217.699219 319.839844 206.175781 331.34375 192.03125 331.34375 Z M 192.03125 331.34375 "/>
<g clip-path="url(#clip2)" clip-rule="nonzero">
<path style=" stroke:none;fill-rule:nonzero;fill:rgb(21.958923%,71.369934%,100%);fill-opacity:1;" d="M 144.3125 177.136719 C 131.261719 177.136719 120.683594 187.703125 120.683594 200.734375 L 120.683594 226.222656 C 120.683594 229.175781 122.445312 231.570312 124.621094 231.570312 C 126.792969 231.570312 128.558594 229.175781 128.558594 226.222656 C 128.558594 229.175781 130.320312 231.570312 132.496094 231.570312 C 134.667969 231.570312 136.433594 229.175781 136.433594 226.222656 C 136.433594 229.175781 138.195312 231.570312 140.367188 231.570312 C 142.542969 231.570312 144.304688 229.175781 144.304688 226.222656 C 144.304688 229.175781 146.070312 231.570312 148.242188 231.570312 C 150.417969 231.570312 152.179688 229.175781 152.179688 226.222656 C 152.179688 229.175781 153.945312 231.570312 156.117188 231.570312 C 158.292969 231.570312 160.054688 229.175781 160.054688 226.222656 C 160.054688 229.175781 161.820312 231.570312 163.992188 231.570312 C 166.167969 231.570312 167.929688 229.175781 167.929688 226.222656 L 167.929688 200.734375 C 167.941406 187.703125 157.359375 177.136719 144.3125 177.136719 Z M 144.3125 177.136719 "/>
</g>
<path style=" stroke:none;fill-rule:nonzero;fill:rgb(100%,100%,100%);fill-opacity:1;" d="M 141.171875 199.957031 C 141.171875 200.308594 141.136719 200.660156 141.070312 201.003906 C 141 201.351562 140.898438 201.6875 140.761719 202.015625 C 140.628906 202.339844 140.460938 202.648438 140.265625 202.945312 C 140.070312 203.238281 139.84375 203.507812 139.59375 203.757812 C 139.34375 204.007812 139.074219 204.230469 138.78125 204.425781 C 138.484375 204.621094 138.175781 204.789062 137.847656 204.921875 C 137.523438 205.058594 137.1875 205.160156 136.839844 205.230469 C 136.492188 205.296875 136.140625 205.332031 135.789062 205.332031 C 135.433594 205.332031 135.085938 205.296875 134.738281 205.230469 C 134.390625 205.160156 134.054688 205.058594 133.726562 204.921875 C 133.402344 204.789062 133.089844 204.621094 132.796875 204.425781 C 132.503906 204.230469 132.230469 204.007812 131.980469 203.757812 C 131.730469 203.507812 131.507812 203.238281 131.3125 202.945312 C 131.117188 202.648438 130.949219 202.339844 130.816406 202.015625 C 130.679688 201.6875 130.578125 201.351562 130.507812 201.003906 C 130.4375 200.660156 130.40625 200.308594 130.40625 199.957031 C 130.40625 199.601562 130.4375 199.253906 130.507812 198.90625 C 130.578125 198.5625 130.679688 198.226562 130.816406 197.898438 C 130.949219 197.574219 131.117188 197.261719 131.3125 196.96875 C 131.507812 196.675781 131.730469 196.402344 131.980469 196.152344 C 132.230469 195.90625 132.503906 195.683594 132.796875 195.484375 C 133.089844 195.289062 133.402344 195.125 133.726562 194.988281 C 134.054688 194.855469 134.390625 194.75 134.738281 194.683594 C 135.085938 194.613281 135.433594 194.578125 135.789062 194.578125 C 136.140625 194.578125 136.492188 194.613281 136.839844 194.683594 C 137.1875 194.75 137.523438 194.855469 137.847656 194.988281 C 138.175781 195.125 138.484375 195.289062 138.78125 195.484375 C 139.074219 195.683594 139.34375 195.90625 139.59375 196.152344 C 139.84375 196.402344 140.070312 196.675781 140.265625 196.96875 C 140.460938 197.261719 140.628906 197.574219 140.761719 197.898438 C 140.898438 198.226562 141 198.5625 141.070312 198.90625 C 141.136719 199.253906 141.171875 199.601562 141.171875 199.957031 Z M 141.171875 199.957031 "/>
<path style=" stroke:none;fill-rule:nonzero;fill:rgb(18.818665%,20.388794%,23.139954%);fill-opacity:1;" d="M 135.8125 200.785156 C 135.8125 201.136719 135.757812 201.476562 135.648438 201.800781 C 135.535156 202.125 135.375 202.414062 135.167969 202.664062 C 134.964844 202.910156 134.726562 203.101562 134.457031 203.238281 C 134.1875 203.371094 133.90625 203.441406 133.613281 203.441406 C 133.320312 203.441406 133.042969 203.371094 132.773438 203.238281 C 132.503906 203.101562 132.265625 202.910156 132.058594 202.664062 C 131.851562 202.414062 131.691406 202.125 131.582031 201.800781 C 131.46875 201.476562 131.414062 201.136719 131.414062 200.785156 C 131.414062 200.433594 131.46875 200.09375 131.582031 199.765625 C 131.691406 199.441406 131.851562 199.15625 132.058594 198.90625 C 132.265625 198.65625 132.503906 198.464844 132.773438 198.328125 C 133.042969 198.195312 133.320312 198.128906 133.613281 198.128906 C 133.90625 198.128906 134.1875 198.195312 134.457031 198.328125 C 134.726562 198.464844 134.964844 198.65625 135.167969 198.90625 C 135.375 199.15625 135.535156 199.441406 135.648438 199.765625 C 135.757812 200.09375 135.8125 200.433594 135.8125 200.785156 Z M 135.8125 200.785156 "/>
<path style=" stroke:none;fill-rule:nonzero;fill:rgb(100%,100%,100%);fill-opacity:1;" d="M 158.515625 199.957031 C 158.515625 200.308594 158.480469 200.660156 158.410156 201.003906 C 158.339844 201.351562 158.238281 201.6875 158.105469 202.015625 C 157.96875 202.339844 157.804688 202.648438 157.605469 202.945312 C 157.410156 203.238281 157.1875 203.507812 156.9375 203.757812 C 156.6875 204.007812 156.414062 204.230469 156.121094 204.425781 C 155.828125 204.621094 155.515625 204.789062 155.191406 204.921875 C 154.863281 205.058594 154.527344 205.160156 154.179688 205.230469 C 153.832031 205.296875 153.484375 205.332031 153.128906 205.332031 C 152.777344 205.332031 152.425781 205.296875 152.078125 205.230469 C 151.734375 205.160156 151.394531 205.058594 151.070312 204.921875 C 150.742188 204.789062 150.433594 204.621094 150.140625 204.425781 C 149.84375 204.230469 149.574219 204.007812 149.324219 203.757812 C 149.074219 203.507812 148.851562 203.238281 148.652344 202.945312 C 148.457031 202.648438 148.292969 202.339844 148.15625 202.015625 C 148.019531 201.6875 147.917969 201.351562 147.851562 201.003906 C 147.78125 200.660156 147.746094 200.308594 147.746094 199.957031 C 147.746094 199.601562 147.78125 199.253906 147.851562 198.90625 C 147.917969 198.5625 148.019531 198.226562 148.15625 197.898438 C 148.292969 197.574219 148.457031 197.261719 148.652344 196.96875 C 148.851562 196.675781 149.074219 196.402344 149.324219 196.152344 C 149.574219 195.90625 149.84375 195.683594 150.140625 195.484375 C 150.433594 195.289062 150.742188 195.125 151.070312 194.988281 C 151.394531 194.855469 151.734375 194.75 152.078125 194.683594 C 152.425781 194.613281 152.777344 194.578125 153.128906 194.578125 C 153.484375 194.578125 153.832031 194.613281 154.179688 194.683594 C 154.527344 194.75 154.863281 194.855469 155.191406 194.988281 C 155.515625 195.125 155.828125 195.289062 156.121094 195.484375 C 156.414062 195.683594 156.6875 195.90625 156.9375 196.152344 C 157.1875 196.402344 157.410156 196.675781 157.605469 196.96875 C 157.804688 197.261719 157.96875 197.574219 158.105469 197.898438 C 158.238281 198.226562 158.339844 198.5625 158.410156 198.90625 C 158.480469 199.253906 158.515625 199.601562 158.515625 199.957031 Z M 158.515625 199.957031 "/>
<path style=" stroke:none;fill-rule:nonzero;fill:rgb(18.818665%,20.388794%,23.139954%);fill-opacity:1;" d="M 153.410156 200.785156 C 153.410156 201.136719 153.355469 201.476562 153.246094 201.800781 C 153.132812 202.125 152.972656 202.414062 152.765625 202.664062 C 152.5625 202.910156 152.324219 203.101562 152.054688 203.238281 C 151.785156 203.371094 151.503906 203.441406 151.210938 203.441406 C 150.917969 203.441406 150.640625 203.371094 150.371094 203.238281 C 150.101562 203.101562 149.863281 202.910156 149.65625 202.664062 C 149.449219 202.414062 149.289062 202.125 149.179688 201.800781 C 149.066406 201.476562 149.011719 201.136719 149.011719 200.785156 C 149.011719 200.433594 149.066406 200.09375 149.179688 199.765625 C 149.289062 199.441406 149.449219 199.15625 149.65625 198.90625 C 149.863281 198.65625 150.101562 198.464844 150.371094 198.328125 C 150.640625 198.195312 150.917969 198.128906 151.210938 198.128906 C 151.503906 198.128906 151.785156 198.195312 152.054688 198.328125 C 152.324219 198.464844 152.5625 198.65625 152.765625 198.90625 C 152.972656 199.15625 153.132812 199.441406 153.246094 199.765625 C 153.355469 200.09375 153.410156 200.433594 153.410156 200.785156 Z M 153.410156 200.785156 "/>
<path style=" stroke:none;fill-rule:nonzero;fill:rgb(18.818665%,20.388794%,23.139954%);fill-opacity:1;" d="M 134.484375 211.195312 C 134.230469 212.5625 134.402344 214.214844 135.761719 214.953125 C 136.804688 215.519531 138.128906 215.253906 138.851562 214.320312 C 139.234375 213.832031 139.402344 213.210938 139.65625 212.65625 C 139.796875 212.355469 140.070312 211.570312 140.445312 211.496094 C 141.152344 211.359375 141.816406 212.078125 142.082031 212.621094 C 142.632812 213.742188 143.15625 215.4375 144.730469 215.273438 C 145.902344 215.152344 146.371094 213.945312 146.773438 213.015625 C 146.839844 212.859375 147.09375 212.082031 147.289062 211.933594 C 148.3125 211.160156 148.714844 211.792969 149.113281 212.429688 C 149.488281 213.027344 149.703125 213.714844 150.160156 214.265625 C 152.238281 216.765625 154.824219 213.640625 154.492188 211.289062 C 154.40625 210.683594 153.484375 210.941406 153.566406 211.542969 C 153.710938 212.558594 152.953125 214.519531 151.621094 214.179688 C 150.945312 214.011719 150.625 213.242188 150.332031 212.695312 C 149.894531 211.875 149.460938 210.933594 148.5 210.625 C 147.71875 210.375 147.023438 210.722656 146.546875 211.34375 C 145.949219 212.117188 145.476562 215.078125 143.921875 214.046875 C 142.582031 213.15625 142.753906 209.679688 140.261719 210.542969 C 139.492188 210.808594 139.121094 211.539062 138.804688 212.230469 C 138.601562 212.679688 138.46875 213.21875 138.175781 213.621094 C 137.835938 214.085938 137.078125 214.414062 136.503906 214.234375 C 135.257812 213.847656 135.230469 212.40625 135.410156 211.449219 C 135.519531 210.847656 134.597656 210.589844 134.484375 211.195312 Z M 134.484375 211.195312 "/>
<g clip-path="url(#clip3)" clip-rule="nonzero">
<path style=" stroke:none;fill-rule:nonzero;fill:rgb(100%,8.628845%,8.628845%);fill-opacity:1;" d="M 144.3125 105.058594 C 131.261719 105.058594 120.683594 115.625 120.683594 128.65625 L 120.683594 154.148438 C 120.683594 157.097656 122.445312 159.492188 124.621094 159.492188 C 126.792969 159.492188 128.558594 157.097656 128.558594 154.148438 C 128.558594 157.097656 130.320312 159.492188 132.496094 159.492188 C 134.667969 159.492188 136.433594 157.097656 136.433594 154.148438 C 136.433594 157.097656 138.195312 159.492188 140.367188 159.492188 C 142.542969 159.492188 144.304688 157.097656 144.304688 154.148438 C 144.304688 157.097656 146.070312 159.492188 148.242188 159.492188 C 150.417969 159.492188 152.179688 157.097656 152.179688 154.148438 C 152.179688 157.097656 153.945312 159.492188 156.117188 159.492188 C 158.292969 159.492188 160.054688 157.097656 160.054688 154.148438 C 160.054688 157.097656 161.820312 159.492188 163.992188 159.492188 C 166.167969 159.492188 167.929688 157.097656 167.929688 154.148438 L 167.929688 128.65625 C 167.941406 115.625 157.359375 105.058594 144.3125 105.058594 Z M 144.3125 105.058594 "/>
</g>
<path style=" stroke:none;fill-rule:nonzero;fill:rgb(100%,100%,100%);fill-opacity:1;" d="M 141.171875 127.878906 C 141.171875 128.230469 141.136719 128.582031 141.070312 128.929688 C 141 129.273438 140.898438 129.609375 140.761719 129.9375 C 140.628906 130.261719 140.460938 130.574219 140.265625 130.867188 C 140.070312 131.160156 139.84375 131.429688 139.59375 131.679688 C 139.34375 131.929688 139.074219 132.152344 138.78125 132.351562 C 138.484375 132.546875 138.175781 132.710938 137.847656 132.847656 C 137.523438 132.980469 137.1875 133.082031 136.839844 133.152344 C 136.492188 133.222656 136.140625 133.257812 135.789062 133.257812 C 135.433594 133.257812 135.085938 133.222656 134.738281 133.152344 C 134.390625 133.082031 134.054688 132.980469 133.726562 132.847656 C 133.402344 132.710938 133.089844 132.546875 132.796875 132.351562 C 132.503906 132.152344 132.230469 131.929688 131.980469 131.679688 C 131.730469 131.429688 131.507812 131.160156 131.3125 130.867188 C 131.117188 130.574219 130.949219 130.261719 130.816406 129.9375 C 130.679688 129.609375 130.578125 129.273438 130.507812 128.929688 C 130.4375 128.582031 130.40625 128.230469 130.40625 127.878906 C 130.40625 127.527344 130.4375 127.175781 130.507812 126.832031 C 130.578125 126.484375 130.679688 126.148438 130.816406 125.820312 C 130.949219 125.496094 131.117188 125.1875 131.3125 124.890625 C 131.507812 124.597656 131.730469 124.328125 131.980469 124.078125 C 132.230469 123.828125 132.503906 123.605469 132.796875 123.410156 C 133.089844 123.210938 133.402344 123.046875 133.726562 122.910156 C 134.054688 122.777344 134.390625 122.675781 134.738281 122.605469 C 135.085938 122.535156 135.433594 122.503906 135.789062 122.503906 C 136.140625 122.503906 136.492188 122.535156 136.839844 122.605469 C 137.1875 122.675781 137.523438 122.777344 137.847656 122.910156 C 138.175781 123.046875 138.484375 123.210938 138.78125 123.410156 C 139.074219 123.605469 139.34375 123.828125 139.59375 124.078125 C 139.84375 124.328125 140.070312 124.597656 140.265625 124.890625 C 140.460938 125.1875 140.628906 125.496094 140.761719 125.820312 C 140.898438 126.148438 141 126.484375 141.070312 126.832031 C 141.136719 127.175781 141.171875 127.527344 141.171875 127.878906 Z M 141.171875 127.878906 "/>
<path style=" stroke:none;fill-rule:nonzero;fill:rgb(18.818665%,20.388794%,23.139954%);fill-opacity:1;" d="M 135.8125 128.707031 C 135.8125 129.058594 135.757812 129.398438 135.648438 129.722656 C 135.535156 130.050781 135.375 130.335938 135.167969 130.585938 C 134.964844 130.835938 134.726562 131.027344 134.457031 131.160156 C 134.1875 131.296875 133.90625 131.363281 133.613281 131.363281 C 133.320312 131.363281 133.042969 131.296875 132.773438 131.160156 C 132.503906 131.027344 132.265625 130.835938 132.058594 130.585938 C 131.851562 130.335938 131.691406 130.050781 131.582031 129.722656 C 131.46875 129.398438 131.414062 129.058594 131.414062 128.707031 C 131.414062 128.355469 131.46875 128.015625 131.582031 127.691406 C 131.691406 127.363281 131.851562 127.078125 132.058594 126.828125 C 132.265625 126.578125 132.503906 126.386719 132.773438 126.253906 C 133.042969 126.117188 133.320312 126.050781 133.613281 126.050781 C 133.90625 126.050781 134.1875 126.117188 134.457031 126.253906 C 134.726562 126.386719 134.964844 126.578125 135.167969 126.828125 C 135.375 127.078125 135.535156 127.363281 135.648438 127.691406 C 135.757812 128.015625 135.8125 128.355469 135.8125 128.707031 Z M 135.8125 128.707031 "/>
<path style=" stroke:none;fill-rule:nonzero;fill:rgb(100%,100%,100%);fill-opacity:1;" d="M 158.515625 127.878906 C 158.515625 128.230469 158.480469 128.582031 158.410156 128.929688 C 158.339844 129.273438 158.238281 129.609375 158.105469 129.9375 C 157.96875 130.261719 157.804688 130.574219 157.605469 130.867188 C 157.410156 131.160156 157.1875 131.429688 156.9375 131.679688 C 156.6875 131.929688 156.414062 132.152344 156.121094 132.351562 C 155.828125 132.546875 155.515625 132.710938 155.191406 132.847656 C 154.863281 132.980469 154.527344 133.082031 154.179688 133.152344 C 153.832031 133.222656 153.484375 133.257812 153.128906 133.257812 C 152.777344 133.257812 152.425781 133.222656 152.078125 133.152344 C 151.734375 133.082031 151.394531 132.980469 151.070312 132.847656 C 150.742188 132.710938 150.433594 132.546875 150.140625 132.351562 C 149.84375 132.152344 149.574219 131.929688 149.324219 131.679688 C 149.074219 131.429688 148.851562 131.160156 148.652344 130.867188 C 148.457031 130.574219 148.292969 130.261719 148.15625 129.9375 C 148.019531 129.609375 147.917969 129.273438 147.851562 128.929688 C 147.78125 128.582031 147.746094 128.230469 147.746094 127.878906 C 147.746094 127.527344 147.78125 127.175781 147.851562 126.832031 C 147.917969 126.484375 148.019531 126.148438 148.15625 125.820312 C 148.292969 125.496094 148.457031 125.1875 148.652344 124.890625 C 148.851562 124.597656 149.074219 124.328125 149.324219 124.078125 C 149.574219 123.828125 149.84375 123.605469 150.140625 123.410156 C 150.433594 123.210938 150.742188 123.046875 151.070312 122.910156 C 151.394531 122.777344 151.734375 122.675781 152.078125 122.605469 C 152.425781 122.535156 152.777344 122.503906 153.128906 122.503906 C 153.484375 122.503906 153.832031 122.535156 154.179688 122.605469 C 154.527344 122.675781 154.863281 122.777344 155.191406 122.910156 C 155.515625 123.046875 155.828125 123.210938 156.121094 123.410156 C 156.414062 123.605469 156.6875 123.828125 156.9375 124.078125 C 157.1875 124.328125 157.410156 124.597656 157.605469 124.890625 C 157.804688 125.1875 157.96875 125.496094 158.105469 125.820312 C 158.238281 126.148438 158.339844 126.484375 158.410156 126.832031 C 158.480469 127.175781 158.515625 127.527344 158.515625 127.878906 Z M 158.515625 127.878906 "/>
<path style=" stroke:none;fill-rule:nonzero;fill:rgb(18.818665%,20.388794%,23.139954%);fill-opacity:1;" d="M 153.410156 128.707031 C 153.410156 129.058594 153.355469 129.398438 153.246094 129.722656 C 153.132812 130.050781 152.972656 130.335938 152.765625 130.585938 C 152.5625 130.835938 152.324219 131.027344 152.054688 131.160156 C 151.785156 131.296875 151.503906 131.363281 151.210938 131.363281 C 150.917969 131.363281 150.640625 131.296875 150.371094 131.160156 C 150.101562 131.027344 149.863281 130.835938 149.65625 130.585938 C 149.449219 130.335938 149.289062 130.050781 149.179688 129.722656 C 149.066406 129.398438 149.011719 129.058594 149.011719 128.707031 C 149.011719 128.355469 149.066406 128.015625 149.179688 127.691406 C 149.289062 127.363281 149.449219 127.078125 149.65625 126.828125 C 149.863281 126.578125 150.101562 126.386719 150.371094 126.253906 C 150.640625 126.117188 150.917969 126.050781 151.210938 126.050781 C 151.503906 126.050781 151.785156 126.117188 152.054688 126.253906 C 152.324219 126.386719 152.5625 126.578125 152.765625 126.828125 C 152.972656 127.078125 153.132812 127.363281 153.246094 127.691406 C 153.355469 128.015625 153.410156 128.355469 153.410156 128.707031 Z M 153.410156 128.707031 "/>
<path style=" stroke:none;fill-rule:nonzero;fill:rgb(18.818665%,20.388794%,23.139954%);fill-opacity:1;" d="M 134.484375 139.117188 C 134.230469 140.484375 134.402344 142.136719 135.761719 142.875 C 136.804688 143.441406 138.128906 143.175781 138.851562 142.246094 C 139.234375 141.757812 139.402344 141.136719 139.65625 140.582031 C 139.796875 140.277344 140.070312 139.492188 140.445312 139.421875 C 141.152344 139.28125 141.816406 140.003906 142.082031 140.542969 C 142.632812 141.667969 143.15625 143.359375 144.730469 143.195312 C 145.902344 143.074219 146.371094 141.871094 146.773438 140.9375 C 146.839844 140.785156 147.09375 140.007812 147.289062 139.859375 C 148.3125 139.082031 148.714844 139.714844 149.113281 140.351562 C 149.488281 140.949219 149.703125 141.640625 150.160156 142.191406 C 152.238281 144.691406 154.824219 141.5625 154.492188 139.210938 C 154.40625 138.605469 153.484375 138.863281 153.566406 139.464844 C 153.710938 140.480469 152.953125 142.441406 151.621094 142.105469 C 150.945312 141.933594 150.625 141.164062 150.332031 140.617188 C 149.894531 139.796875 149.460938 138.855469 148.5 138.546875 C 147.71875 138.296875 147.023438 138.644531 146.546875 139.265625 C 145.949219 140.042969 145.476562 143.003906 143.921875 141.96875 C 142.582031 141.082031 142.753906 137.605469 140.261719 138.464844 C 139.492188 138.734375 139.121094 139.460938 138.804688 140.152344 C 138.601562 140.601562 138.46875 141.140625 138.175781 141.542969 C 137.835938 142.011719 137.078125 142.335938 136.503906 142.15625 C 135.257812 141.769531 135.230469 140.332031 135.410156 139.375 C 135.519531 138.773438 134.597656 138.511719 134.484375 139.117188 Z M 134.484375 139.117188 "/>
<g clip-path="url(#clip4)" clip-rule="nonzero">
<path style=" stroke:none;fill-rule:nonzero;fill:rgb(100%,87.059021%,34.899902%);fill-opacity:1;" d="M 80.292969 105.058594 C 67.242188 105.058594 56.664062 115.625 56.664062 128.65625 L 56.664062 154.148438 C 56.664062 157.097656 58.425781 159.492188 60.601562 159.492188 C 62.777344 159.492188 64.539062 157.097656 64.539062 154.148438 C 64.539062 157.097656 66.300781 159.492188 68.476562 159.492188 C 70.648438 159.492188 72.414062 157.097656 72.414062 154.148438 C 72.414062 157.097656 74.175781 159.492188 76.351562 159.492188 C 78.523438 159.492188 80.289062 157.097656 80.289062 154.148438 C 80.289062 157.097656 82.050781 159.492188 84.226562 159.492188 C 86.398438 159.492188 88.164062 157.097656 88.164062 154.148438 C 88.164062 157.097656 89.925781 159.492188 92.101562 159.492188 C 94.273438 159.492188 96.039062 157.097656 96.039062 154.148438 C 96.039062 157.097656 97.800781 159.492188 99.976562 159.492188 C 102.148438 159.492188 103.914062 157.097656 103.914062 154.148438 L 103.914062 128.65625 C 103.921875 115.625 93.339844 105.058594 80.292969 105.058594 Z M 80.292969 105.058594 "/>
</g>
<path style=" stroke:none;fill-rule:nonzero;fill:rgb(100%,100%,100%);fill-opacity:1;" d="M 77.152344 127.878906 C 77.152344 128.230469 77.117188 128.582031 77.050781 128.929688 C 76.980469 129.273438 76.878906 129.609375 76.742188 129.9375 C 76.609375 130.261719 76.441406 130.574219 76.246094 130.867188 C 76.050781 131.160156 75.828125 131.429688 75.578125 131.679688 C 75.328125 131.929688 75.054688 132.152344 74.761719 132.351562 C 74.46875 132.546875 74.15625 132.710938 73.828125 132.847656 C 73.503906 132.980469 73.167969 133.082031 72.820312 133.152344 C 72.472656 133.222656 72.125 133.257812 71.769531 133.257812 C 71.417969 133.257812 71.066406 133.222656 70.71875 133.152344 C 70.371094 133.082031 70.035156 132.980469 69.710938 132.847656 C 69.382812 132.710938 69.074219 132.546875 68.777344 132.351562 C 68.484375 132.152344 68.210938 131.929688 67.960938 131.679688 C 67.710938 131.429688 67.488281 131.160156 67.292969 130.867188 C 67.097656 130.574219 66.929688 130.261719 66.796875 129.9375 C 66.660156 129.609375 66.558594 129.273438 66.488281 128.929688 C 66.421875 128.582031 66.386719 128.230469 66.386719 127.878906 C 66.386719 127.527344 66.421875 127.175781 66.488281 126.832031 C 66.558594 126.484375 66.660156 126.148438 66.796875 125.820312 C 66.929688 125.496094 67.097656 125.1875 67.292969 124.890625 C 67.488281 124.597656 67.710938 124.328125 67.960938 124.078125 C 68.210938 123.828125 68.484375 123.605469 68.777344 123.410156 C 69.074219 123.210938 69.382812 123.046875 69.710938 122.910156 C 70.035156 122.777344 70.371094 122.675781 70.71875 122.605469 C 71.066406 122.535156 71.417969 122.503906 71.769531 122.503906 C 72.125 122.503906 72.472656 122.535156 72.820312 122.605469 C 73.167969 122.675781 73.503906 122.777344 73.828125 122.910156 C 74.15625 123.046875 74.46875 123.210938 74.761719 123.410156 C 75.054688 123.605469 75.328125 123.828125 75.578125 124.078125 C 75.828125 124.328125 76.050781 124.597656 76.246094 124.890625 C 76.441406 125.1875 76.609375 125.496094 76.742188 125.820312 C 76.878906 126.148438 76.980469 126.484375 77.050781 126.832031 C 77.117188 127.175781 77.152344 127.527344 77.152344 127.878906 Z M 77.152344 127.878906 "/>
<path style=" stroke:none;fill-rule:nonzero;fill:rgb(18.818665%,20.388794%,23.139954%);fill-opacity:1;" d="M 71.796875 128.707031 C 71.796875 129.058594 71.738281 129.398438 71.628906 129.722656 C 71.515625 130.050781 71.355469 130.335938 71.152344 130.585938 C 70.945312 130.835938 70.707031 131.027344 70.4375 131.160156 C 70.167969 131.296875 69.886719 131.363281 69.59375 131.363281 C 69.304688 131.363281 69.023438 131.296875 68.753906 131.160156 C 68.484375 131.027344 68.246094 130.835938 68.039062 130.585938 C 67.832031 130.335938 67.671875 130.050781 67.5625 129.722656 C 67.449219 129.398438 67.394531 129.058594 67.394531 128.707031 C 67.394531 128.355469 67.449219 128.015625 67.5625 127.691406 C 67.671875 127.363281 67.832031 127.078125 68.039062 126.828125 C 68.246094 126.578125 68.484375 126.386719 68.753906 126.253906 C 69.023438 126.117188 69.304688 126.050781 69.59375 126.050781 C 69.886719 126.050781 70.167969 126.117188 70.4375 126.253906 C 70.707031 126.386719 70.945312 126.578125 71.152344 126.828125 C 71.355469 127.078125 71.515625 127.363281 71.628906 127.691406 C 71.738281 128.015625 71.796875 128.355469 71.796875 128.707031 Z M 71.796875 128.707031 "/>
<path style=" stroke:none;fill-rule:nonzero;fill:rgb(100%,100%,100%);fill-opacity:1;" d="M 94.496094 127.878906 C 94.496094 128.230469 94.460938 128.582031 94.390625 128.929688 C 94.324219 129.273438 94.21875 129.609375 94.085938 129.9375 C 93.949219 130.261719 93.785156 130.574219 93.585938 130.867188 C 93.390625 131.160156 93.167969 131.429688 92.917969 131.679688 C 92.667969 131.929688 92.394531 132.152344 92.101562 132.351562 C 91.808594 132.546875 91.496094 132.710938 91.171875 132.847656 C 90.84375 132.980469 90.507812 133.082031 90.160156 133.152344 C 89.816406 133.222656 89.464844 133.257812 89.109375 133.257812 C 88.757812 133.257812 88.40625 133.222656 88.0625 133.152344 C 87.714844 133.082031 87.378906 132.980469 87.050781 132.847656 C 86.722656 132.710938 86.414062 132.546875 86.121094 132.351562 C 85.824219 132.152344 85.554688 131.929688 85.304688 131.679688 C 85.054688 131.429688 84.832031 131.160156 84.632812 130.867188 C 84.4375 130.574219 84.273438 130.261719 84.136719 129.9375 C 84 129.609375 83.898438 129.273438 83.832031 128.929688 C 83.761719 128.582031 83.726562 128.230469 83.726562 127.878906 C 83.726562 127.527344 83.761719 127.175781 83.832031 126.832031 C 83.898438 126.484375 84 126.148438 84.136719 125.820312 C 84.273438 125.496094 84.4375 125.1875 84.632812 124.890625 C 84.832031 124.597656 85.054688 124.328125 85.304688 124.078125 C 85.554688 123.828125 85.824219 123.605469 86.121094 123.410156 C 86.414062 123.210938 86.722656 123.046875 87.050781 122.910156 C 87.378906 122.777344 87.714844 122.675781 88.0625 122.605469 C 88.40625 122.535156 88.757812 122.503906 89.109375 122.503906 C 89.464844 122.503906 89.816406 122.535156 90.160156 122.605469 C 90.507812 122.675781 90.84375 122.777344 91.171875 122.910156 C 91.496094 123.046875 91.808594 123.210938 92.101562 123.410156 C 92.394531 123.605469 92.667969 123.828125 92.917969 124.078125 C 93.167969 124.328125 93.390625 124.597656 93.585938 124.890625 C 93.785156 125.1875 93.949219 125.496094 94.085938 125.820312 C 94.21875 126.148438 94.324219 126.484375 94.390625 126.832031 C 94.460938 127.175781 94.496094 127.527344 94.496094 127.878906 Z M 94.496094 127.878906 "/>
<path style=" stroke:none;fill-rule:nonzero;fill:rgb(18.818665%,20.388794%,23.139954%);fill-opacity:1;" d="M 89.394531 128.707031 C 89.394531 129.058594 89.335938 129.398438 89.226562 129.722656 C 89.113281 130.050781 88.953125 130.335938 88.75 130.585938 C 88.542969 130.835938 88.304688 131.027344 88.035156 131.160156 C 87.765625 131.296875 87.484375 131.363281 87.191406 131.363281 C 86.902344 131.363281 86.621094 131.296875 86.351562 131.160156 C 86.082031 131.027344 85.84375 130.835938 85.636719 130.585938 C 85.429688 130.335938 85.269531 130.050781 85.160156 129.722656 C 85.046875 129.398438 84.992188 129.058594 84.992188 128.707031 C 84.992188 128.355469 85.046875 128.015625 85.160156 127.691406 C 85.269531 127.363281 85.429688 127.078125 85.636719 126.828125 C 85.84375 126.578125 86.082031 126.386719 86.351562 126.253906 C 86.621094 126.117188 86.902344 126.050781 87.191406 126.050781 C 87.484375 126.050781 87.765625 126.117188 88.035156 126.253906 C 88.304688 126.386719 88.542969 126.578125 88.75 126.828125 C 88.953125 127.078125 89.113281 127.363281 89.226562 127.691406 C 89.335938 128.015625 89.394531 128.355469 89.394531 128.707031 Z M 89.394531 128.707031 "/>
<path style=" stroke:none;fill-rule:nonzero;fill:rgb(18.818665%,20.388794%,23.139954%);fill-opacity:1;" d="M 70.464844 139.117188 C 70.210938 140.484375 70.382812 142.136719 71.742188 142.875 C 72.785156 143.441406 74.109375 143.175781 74.832031 142.246094 C 75.214844 141.757812 75.382812 141.136719 75.640625 140.582031 C 75.777344 140.277344 76.050781 139.492188 76.425781 139.421875 C 77.132812 139.28125 77.796875 140.003906 78.0625 140.542969 C 78.613281 141.667969 79.136719 143.359375 80.710938 143.195312 C 81.882812 143.074219 82.351562 141.871094 82.753906 140.9375 C 82.820312 140.785156 83.074219 140.007812 83.269531 139.859375 C 84.292969 139.082031 84.695312 139.714844 85.09375 140.351562 C 85.46875 140.949219 85.683594 141.640625 86.140625 142.191406 C 88.21875 144.691406 90.804688 141.5625 90.472656 139.210938 C 90.386719 138.605469 89.464844 138.863281 89.550781 139.464844 C 89.691406 140.480469 88.933594 142.441406 87.601562 142.105469 C 86.925781 141.933594 86.605469 141.164062 86.3125 140.617188 C 85.875 139.796875 85.441406 138.855469 84.480469 138.546875 C 83.699219 138.296875 83.003906 138.644531 82.527344 139.265625 C 81.929688 140.042969 81.457031 143.003906 79.902344 141.96875 C 78.5625 141.082031 78.734375 137.605469 76.242188 138.464844 C 75.472656 138.734375 75.101562 139.460938 74.785156 140.152344 C 74.582031 140.601562 74.449219 141.140625 74.160156 141.542969 C 73.820312 142.011719 73.058594 142.335938 72.484375 142.15625 C 71.238281 141.769531 71.210938 140.332031 71.390625 139.375 C 71.5 138.773438 70.578125 138.511719 70.464844 139.117188 Z M 70.464844 139.117188 "/>
<g clip-path="url(#clip5)" clip-rule="nonzero">
<path style=" stroke:none;fill-rule:nonzero;fill:rgb(49.409485%,85.099792%,34.118652%);fill-opacity:1;" d="M 82.3125 177.136719 C 69.261719 177.136719 58.683594 187.703125 58.683594 200.734375 L 58.683594 226.222656 C 58.683594 229.175781 60.445312 231.570312 62.621094 231.570312 C 64.796875 231.570312 66.558594 229.175781 66.558594 226.222656 C 66.558594 229.175781 68.320312 231.570312 70.496094 231.570312 C 72.671875 231.570312 74.433594 229.175781 74.433594 226.222656 C 74.433594 229.175781 76.195312 231.570312 78.371094 231.570312 C 80.546875 231.570312 82.308594 229.175781 82.308594 226.222656 C 82.308594 229.175781 84.070312 231.570312 86.246094 231.570312 C 88.421875 231.570312 90.183594 229.175781 90.183594 226.222656 C 90.183594 229.175781 91.945312 231.570312 94.121094 231.570312 C 96.296875 231.570312 98.058594 229.175781 98.058594 226.222656 C 98.058594 229.175781 99.820312 231.570312 101.996094 231.570312 C 104.171875 231.570312 105.933594 229.175781 105.933594 226.222656 L 105.933594 200.734375 C 105.941406 187.703125 95.363281 177.136719 82.3125 177.136719 Z M 82.3125 177.136719 "/>
</g>
<path style=" stroke:none;fill-rule:nonzero;fill:rgb(100%,100%,100%);fill-opacity:1;" d="M 79.171875 199.957031 C 79.171875 200.308594 79.140625 200.660156 79.070312 201.003906 C 79 201.351562 78.898438 201.6875 78.765625 202.015625 C 78.628906 202.339844 78.460938 202.648438 78.265625 202.945312 C 78.070312 203.238281 77.847656 203.507812 77.597656 203.757812 C 77.347656 204.007812 77.074219 204.230469 76.78125 204.425781 C 76.488281 204.621094 76.175781 204.789062 75.851562 204.921875 C 75.523438 205.058594 75.1875 205.160156 74.839844 205.230469 C 74.492188 205.296875 74.144531 205.332031 73.789062 205.332031 C 73.4375 205.332031 73.085938 205.296875 72.738281 205.230469 C 72.394531 205.160156 72.054688 205.058594 71.730469 204.921875 C 71.402344 204.789062 71.09375 204.621094 70.800781 204.425781 C 70.503906 204.230469 70.234375 204.007812 69.984375 203.757812 C 69.734375 203.507812 69.511719 203.238281 69.3125 202.945312 C 69.117188 202.648438 68.953125 202.339844 68.816406 202.015625 C 68.679688 201.6875 68.578125 201.351562 68.507812 201.003906 C 68.441406 200.660156 68.40625 200.308594 68.40625 199.957031 C 68.40625 199.601562 68.441406 199.253906 68.507812 198.90625 C 68.578125 198.5625 68.679688 198.226562 68.816406 197.898438 C 68.953125 197.574219 69.117188 197.261719 69.3125 196.96875 C 69.511719 196.675781 69.734375 196.402344 69.984375 196.152344 C 70.234375 195.90625 70.503906 195.683594 70.800781 195.484375 C 71.09375 195.289062 71.402344 195.125 71.730469 194.988281 C 72.054688 194.855469 72.394531 194.75 72.738281 194.683594 C 73.085938 194.613281 73.4375 194.578125 73.789062 194.578125 C 74.144531 194.578125 74.492188 194.613281 74.839844 194.683594 C 75.1875 194.75 75.523438 194.855469 75.851562 194.988281 C 76.175781 195.125 76.488281 195.289062 76.78125 195.484375 C 77.074219 195.683594 77.347656 195.90625 77.597656 196.152344 C 77.847656 196.402344 78.070312 196.675781 78.265625 196.96875 C 78.460938 197.261719 78.628906 197.574219 78.765625 197.898438 C 78.898438 198.226562 79 198.5625 79.070312 198.90625 C 79.140625 199.253906 79.171875 199.601562 79.171875 199.957031 Z M 79.171875 199.957031 "/>
<path style=" stroke:none;fill-rule:nonzero;fill:rgb(18.818665%,20.388794%,23.139954%);fill-opacity:1;" d="M 73.816406 200.785156 C 73.816406 201.136719 73.761719 201.476562 73.648438 201.800781 C 73.535156 202.125 73.378906 202.414062 73.171875 202.664062 C 72.964844 202.910156 72.726562 203.101562 72.457031 203.238281 C 72.1875 203.371094 71.90625 203.441406 71.613281 203.441406 C 71.324219 203.441406 71.042969 203.371094 70.773438 203.238281 C 70.503906 203.101562 70.265625 202.910156 70.058594 202.664062 C 69.851562 202.414062 69.695312 202.125 69.582031 201.800781 C 69.46875 201.476562 69.414062 201.136719 69.414062 200.785156 C 69.414062 200.433594 69.46875 200.09375 69.582031 199.765625 C 69.695312 199.441406 69.851562 199.15625 70.058594 198.90625 C 70.265625 198.65625 70.503906 198.464844 70.773438 198.328125 C 71.042969 198.195312 71.324219 198.128906 71.613281 198.128906 C 71.90625 198.128906 72.1875 198.195312 72.457031 198.328125 C 72.726562 198.464844 72.964844 198.65625 73.171875 198.90625 C 73.378906 199.15625 73.535156 199.441406 73.648438 199.765625 C 73.761719 200.09375 73.816406 200.433594 73.816406 200.785156 Z M 73.816406 200.785156 "/>
<path style=" stroke:none;fill-rule:nonzero;fill:rgb(100%,100%,100%);fill-opacity:1;" d="M 96.515625 199.957031 C 96.515625 200.308594 96.480469 200.660156 96.410156 201.003906 C 96.34375 201.351562 96.242188 201.6875 96.105469 202.015625 C 95.96875 202.339844 95.804688 202.648438 95.609375 202.945312 C 95.410156 203.238281 95.1875 203.507812 94.9375 203.757812 C 94.6875 204.007812 94.417969 204.230469 94.121094 204.425781 C 93.828125 204.621094 93.519531 204.789062 93.191406 204.921875 C 92.863281 205.058594 92.527344 205.160156 92.183594 205.230469 C 91.835938 205.296875 91.484375 205.332031 91.132812 205.332031 C 90.777344 205.332031 90.425781 205.296875 90.082031 205.230469 C 89.734375 205.160156 89.398438 205.058594 89.070312 204.921875 C 88.746094 204.789062 88.433594 204.621094 88.140625 204.425781 C 87.847656 204.230469 87.574219 204.007812 87.324219 203.757812 C 87.074219 203.507812 86.851562 203.238281 86.65625 202.945312 C 86.457031 202.648438 86.292969 202.339844 86.15625 202.015625 C 86.023438 201.6875 85.921875 201.351562 85.851562 201.003906 C 85.78125 200.660156 85.746094 200.308594 85.746094 199.957031 C 85.746094 199.601562 85.78125 199.253906 85.851562 198.90625 C 85.921875 198.5625 86.023438 198.226562 86.15625 197.898438 C 86.292969 197.574219 86.457031 197.261719 86.65625 196.96875 C 86.851562 196.675781 87.074219 196.402344 87.324219 196.152344 C 87.574219 195.90625 87.847656 195.683594 88.140625 195.484375 C 88.433594 195.289062 88.746094 195.125 89.070312 194.988281 C 89.398438 194.855469 89.734375 194.75 90.082031 194.683594 C 90.425781 194.613281 90.777344 194.578125 91.132812 194.578125 C 91.484375 194.578125 91.835938 194.613281 92.183594 194.683594 C 92.527344 194.75 92.863281 194.855469 93.191406 194.988281 C 93.519531 195.125 93.828125 195.289062 94.121094 195.484375 C 94.417969 195.683594 94.6875 195.90625 94.9375 196.152344 C 95.1875 196.402344 95.410156 196.675781 95.609375 196.96875 C 95.804688 197.261719 95.96875 197.574219 96.105469 197.898438 C 96.242188 198.226562 96.34375 198.5625 96.410156 198.90625 C 96.480469 199.253906 96.515625 199.601562 96.515625 199.957031 Z M 96.515625 199.957031 "/>
<path style=" stroke:none;fill-rule:nonzero;fill:rgb(18.818665%,20.388794%,23.139954%);fill-opacity:1;" d="M 91.414062 200.785156 C 91.414062 201.136719 91.359375 201.476562 91.246094 201.800781 C 91.132812 202.125 90.976562 202.414062 90.769531 202.664062 C 90.5625 202.910156 90.324219 203.101562 90.054688 203.238281 C 89.785156 203.371094 89.503906 203.441406 89.210938 203.441406 C 88.921875 203.441406 88.640625 203.371094 88.371094 203.238281 C 88.101562 203.101562 87.863281 202.910156 87.65625 202.664062 C 87.449219 202.414062 87.292969 202.125 87.179688 201.800781 C 87.066406 201.476562 87.011719 201.136719 87.011719 200.785156 C 87.011719 200.433594 87.066406 200.09375 87.179688 199.765625 C 87.292969 199.441406 87.449219 199.15625 87.65625 198.90625 C 87.863281 198.65625 88.101562 198.464844 88.371094 198.328125 C 88.640625 198.195312 88.921875 198.128906 89.210938 198.128906 C 89.503906 198.128906 89.785156 198.195312 90.054688 198.328125 C 90.324219 198.464844 90.5625 198.65625 90.769531 198.90625 C 90.976562 199.15625 91.132812 199.441406 91.246094 199.765625 C 91.359375 200.09375 91.414062 200.433594 91.414062 200.785156 Z M 91.414062 200.785156 "/>
<path style=" stroke:none;fill-rule:nonzero;fill:rgb(18.818665%,20.388794%,23.139954%);fill-opacity:1;" d="M 72.488281 211.195312 C 72.234375 212.5625 72.402344 214.214844 73.765625 214.953125 C 74.804688 215.519531 76.128906 215.253906 76.855469 214.320312 C 77.234375 213.832031 77.40625 213.210938 77.660156 212.65625 C 77.796875 212.355469 78.070312 211.570312 78.445312 211.496094 C 79.152344 211.359375 79.820312 212.078125 80.082031 212.621094 C 80.632812 213.742188 81.15625 215.4375 82.734375 215.273438 C 83.902344 215.152344 84.371094 213.945312 84.777344 213.015625 C 84.839844 212.859375 85.09375 212.082031 85.289062 211.933594 C 86.3125 211.160156 86.714844 211.792969 87.113281 212.429688 C 87.492188 213.027344 87.703125 213.714844 88.160156 214.265625 C 90.238281 216.765625 92.824219 213.640625 92.492188 211.289062 C 92.40625 210.683594 91.484375 210.941406 91.570312 211.542969 C 91.710938 212.558594 90.953125 214.519531 89.621094 214.179688 C 88.949219 214.011719 88.625 213.242188 88.332031 212.695312 C 87.894531 211.875 87.460938 210.933594 86.5 210.625 C 85.71875 210.375 85.027344 210.722656 84.546875 211.34375 C 83.949219 212.117188 83.480469 215.078125 81.921875 214.046875 C 80.582031 213.15625 80.753906 209.679688 78.261719 210.542969 C 77.496094 210.808594 77.121094 211.539062 76.804688 212.230469 C 76.605469 212.679688 76.472656 213.21875 76.179688 213.621094 C 75.839844 214.085938 75.082031 214.414062 74.503906 214.234375 C 73.261719 213.847656 73.230469 212.40625 73.410156 211.449219 C 73.519531 210.847656 72.601562 210.589844 72.488281 211.195312 Z M 72.488281 211.195312 "/>
<path style="fill:none;stroke-width:1;stroke-linecap:round;stroke-linejoin:miter;stroke:rgb(100%,100%,100%);stroke-opacity:1;stroke-miterlimit:4;" d="M 0.499862 0.000225227 L 14.397196 0.000225227 " transform="matrix(7.490476,0,0,7.048381,56.658143,168.443725)"/>
<path style="fill:none;stroke-width:1;stroke-linecap:round;stroke-linejoin:miter;stroke:rgb(100%,100%,100%);stroke-opacity:1;stroke-miterlimit:4;" d="M 0.499749 -0.000122761 L 14.397084 -0.000122761 " transform="matrix(0.000000000000000459,7.490476,-7.048381,0.000000000000000432,112.495228,114.95586)"/>
</g>
</svg>
