<?xml version="1.0" encoding="UTF-8"?>
<svg xmlns="http://www.w3.org/2000/svg" xmlns:xlink="http://www.w3.org/1999/xlink" width="224.87999pt" height="337.499995pt" viewBox="0 0 224.87999 337.499995" version="1.2">
<defs>
<clipPath id="clip1-invert">
  <path d="M 1 0 L 224 0 L 224 337 L 1 337 Z M 1 0 "/>
</clipPath>
<clipPath id="clip2-invert">
  <path d="M 122 126 L 177 126 L 177 178 L 122 178 Z M 122 126 "/>
</clipPath>
<clipPath id="clip3-invert">
  <path d="M 27.765625 181.160156 L 128.910156 80.015625 L 197.21875 148.328125 L 96.078125 249.472656 Z M 27.765625 181.160156 "/>
</clipPath>
<clipPath id="clip4-invert">
  <path d="M 27.765625 181.160156 L 128.910156 80.015625 L 197.21875 148.328125 L 96.078125 249.472656 Z M 27.765625 181.160156 "/>
</clipPath>
<clipPath id="clip5-invert">
  <path d="M 101 140 L 161 140 L 161 201 L 101 201 Z M 101 140 "/>
</clipPath>
<clipPath id="clip6-invert">
  <path d="M 27.765625 181.160156 L 128.910156 80.015625 L 197.21875 148.328125 L 96.078125 249.472656 Z M 27.765625 181.160156 "/>
</clipPath>
<clipPath id="clip7-invert">
  <path d="M 27.765625 181.160156 L 128.910156 80.015625 L 197.21875 148.328125 L 96.078125 249.472656 Z M 27.765625 181.160156 "/>
</clipPath>
<clipPath id="clip8-invert">
  <path d="M 49 151 L 102 151 L 102 205 L 49 205 Z M 49 151 "/>
</clipPath>
<clipPath id="clip9-invert">
  <path d="M 27.765625 181.160156 L 128.910156 80.015625 L 197.21875 148.328125 L 96.078125 249.472656 Z M 27.765625 181.160156 "/>
</clipPath>
<clipPath id="clip10-invert">
  <path d="M 27.765625 181.160156 L 128.910156 80.015625 L 197.21875 148.328125 L 96.078125 249.472656 Z M 27.765625 181.160156 "/>
</clipPath>
<clipPath id="clip11-invert">
  <path d="M 64 128 L 126 128 L 126 189 L 64 189 Z M 64 128 "/>
</clipPath>
<clipPath id="clip12-invert">
  <path d="M 27.765625 181.160156 L 128.910156 80.015625 L 197.21875 148.328125 L 96.078125 249.472656 Z M 27.765625 181.160156 "/>
</clipPath>
<clipPath id="clip13-invert">
  <path d="M 27.765625 181.160156 L 128.910156 80.015625 L 197.21875 148.328125 L 96.078125 249.472656 Z M 27.765625 181.160156 "/>
</clipPath>
<clipPath id="clip14-invert">
  <path d="M 141 262.398438 L 191.910156 262.398438 L 191.910156 316.828125 L 141 316.828125 Z M 141 262.398438 "/>
</clipPath>
<clipPath id="clip15-invert">
  <path d="M 31.570312 18.574219 L 83 18.574219 L 83 73 L 31.570312 73 Z M 31.570312 18.574219 "/>
</clipPath>
<clipPath id="clip16-invert">
  <path d="M 74 43 L 83.136719 43 L 83.136719 53 L 74 53 Z M 74 43 "/>
</clipPath>
</defs>
<g id="surface1-invert">
<g clip-path="url(#clip1-invert)" clip-rule="nonzero">
<path style=" stroke:none;fill-rule:nonzero;fill:rgb(23.919678%,27.839661%,37.649536%);fill-opacity:1;" d="M 197.785156 337.503906 L 27.535156 337.503906 C 13.394531 337.503906 1.871094 325.984375 1.871094 311.851562 L 1.871094 25.65625 C 1.871094 11.519531 13.394531 0.00390625 27.535156 0.00390625 L 197.785156 0.00390625 C 211.925781 0.00390625 223.449219 11.519531 223.449219 25.65625 L 223.449219 311.851562 C 223.449219 325.984375 211.925781 337.503906 197.785156 337.503906 Z M 197.785156 337.503906 "/>
</g>
<path style=" stroke:none;fill-rule:nonzero;fill:rgb(23.919678%,27.839661%,37.649536%);fill-opacity:1;" d="M 192.03125 331.34375 L 33.265625 331.34375 C 19.125 331.34375 7.601562 319.839844 7.601562 305.71875 L 7.601562 31.402344 C 7.601562 17.28125 19.125 5.777344 33.265625 5.777344 L 192.03125 5.777344 C 206.175781 5.777344 217.699219 17.28125 217.699219 31.402344 L 217.699219 305.71875 C 217.699219 319.839844 206.175781 331.34375 192.03125 331.34375 Z M 192.03125 331.34375 "/>
<g clip-path="url(#clip2-invert)" clip-rule="nonzero">
<g clip-path="url(#clip3-invert)" clip-rule="nonzero">
<g clip-path="url(#clip4-invert)" clip-rule="nonzero">
<path style=" stroke:none;fill-rule:nonzero;fill:rgb(100%,100%,100%);fill-opacity:1;" d="M 166.039062 177.363281 C 167.617188 177.351562 169.121094 176.496094 170.355469 174.253906 C 173.21875 169.058594 172.195312 163.222656 173.03125 157.632812 C 174.183594 149.894531 176.484375 142.273438 176.367188 134.378906 C 176.265625 127.453125 171.238281 125.375 166.144531 126.171875 C 158.410156 127.378906 150.71875 128.859375 143.050781 130.441406 C 139.851562 131.097656 136.449219 131.011719 133.207031 131.460938 C 130.394531 131.855469 124.910156 131.960938 123.335938 134.75 C 122.140625 136.863281 124.277344 139.160156 125.667969 140.570312 C 132.011719 147.007812 138.765625 153.023438 145.386719 159.175781 C 149.695312 163.179688 153.386719 167.765625 157.457031 172 C 159.699219 174.332031 163.011719 177.390625 166.039062 177.363281 Z M 166.039062 177.363281 "/>
</g>
</g>
</g>
<g clip-path="url(#clip5-invert)" clip-rule="nonzero">
<g clip-path="url(#clip6-invert)" clip-rule="nonzero">
<g clip-path="url(#clip7-invert)" clip-rule="nonzero">
<path style=" stroke:none;fill-rule:nonzero;fill:rgb(100%,100%,100%);fill-opacity:1;" d="M 115.101562 200.792969 C 110.527344 200.785156 108.066406 196.875 105.722656 193.554688 C 103.4375 190.324219 99.28125 186.355469 102.640625 182.429688 C 105.035156 179.628906 108.429688 177.796875 110.941406 175.105469 C 114.503906 171.285156 117.980469 167.382812 121.671875 163.6875 C 128.054688 157.296875 134.441406 150.910156 140.832031 144.519531 C 141.007812 144.347656 144.792969 140.5625 144.792969 140.5625 L 160.601562 156.371094 C 157.046875 159.925781 153.488281 163.476562 149.9375 167.035156 C 143.949219 173.03125 137.972656 179.03125 132.054688 185.09375 C 129.042969 188.183594 126.046875 191.285156 123.070312 194.410156 C 121.078125 196.496094 118.347656 200.800781 115.101562 200.792969 Z M 115.101562 200.792969 "/>
</g>
</g>
</g>
<g clip-path="url(#clip8-invert)" clip-rule="nonzero">
<g clip-path="url(#clip9-invert)" clip-rule="nonzero">
<g clip-path="url(#clip10-invert)" clip-rule="nonzero">
<path style=" stroke:none;fill-rule:nonzero;fill:rgb(49.409485%,66.268921%,69.40918%);fill-opacity:1;" d="M 101.15625 194.332031 C 101.144531 195.914062 100.289062 197.417969 98.050781 198.652344 C 92.851562 201.515625 87.015625 200.492188 81.425781 201.324219 C 73.6875 202.480469 66.066406 204.78125 58.175781 204.664062 C 51.246094 204.558594 49.167969 199.535156 49.964844 194.441406 C 51.175781 186.703125 52.652344 179.015625 54.234375 171.347656 C 54.894531 168.144531 54.804688 164.746094 55.257812 161.503906 C 55.648438 158.6875 55.753906 153.207031 58.542969 151.628906 C 60.65625 150.4375 62.953125 152.574219 64.363281 153.964844 C 70.804688 160.308594 76.816406 167.0625 82.96875 173.679688 C 86.972656 177.992188 91.5625 181.683594 95.796875 185.753906 C 98.128906 187.996094 101.183594 191.308594 101.15625 194.332031 Z M 101.15625 194.332031 "/>
</g>
</g>
</g>
<g clip-path="url(#clip11-invert)" clip-rule="nonzero">
<g clip-path="url(#clip12-invert)" clip-rule="nonzero">
<g clip-path="url(#clip13-invert)" clip-rule="nonzero">
<path style=" stroke:none;fill-rule:nonzero;fill:rgb(49.409485%,66.268921%,69.40918%);fill-opacity:1;" d="M 125.046875 143.464844 C 124.769531 139.628906 119.261719 135.835938 116.804688 133.21875 C 114.570312 130.84375 110.105469 126.539062 106.820312 129.792969 C 104.667969 131.921875 103.097656 134.464844 100.796875 136.523438 C 98.292969 138.757812 96.015625 141.140625 93.742188 143.609375 C 92.277344 145.203125 90.734375 146.710938 89.203125 148.238281 C 82.359375 155.085938 75.515625 161.929688 68.667969 168.773438 C 68.4375 169.007812 64.355469 173.085938 64.355469 173.085938 L 80.164062 188.894531 C 84.058594 184.996094 87.957031 181.101562 91.855469 177.203125 C 97.792969 171.265625 103.828125 165.429688 109.855469 159.582031 C 112.851562 156.671875 115.851562 153.761719 118.835938 150.832031 C 120.84375 148.859375 125.285156 146.804688 125.046875 143.464844 Z M 125.046875 143.464844 "/>
</g>
</g>
</g>
<path style=" stroke:none;fill-rule:nonzero;fill:rgb(49.409485%,66.268921%,69.40918%);fill-opacity:1;" d="M 112.5625 287.542969 C 112.246094 287.542969 111.929688 287.570312 111.617188 287.632812 C 111.304688 287.695312 111 287.789062 110.703125 287.910156 C 110.410156 288.03125 110.128906 288.183594 109.863281 288.359375 C 109.597656 288.539062 109.355469 288.738281 109.128906 288.964844 C 108.902344 289.191406 108.703125 289.433594 108.523438 289.699219 C 108.347656 289.964844 108.195312 290.246094 108.074219 290.539062 C 107.953125 290.835938 107.859375 291.140625 107.796875 291.453125 C 107.738281 291.765625 107.707031 292.082031 107.707031 292.398438 C 107.707031 292.71875 107.738281 293.035156 107.796875 293.347656 C 107.859375 293.660156 107.953125 293.964844 108.074219 294.257812 C 108.195312 294.554688 108.347656 294.835938 108.523438 295.097656 C 108.703125 295.363281 108.902344 295.609375 109.128906 295.835938 C 109.355469 296.0625 109.597656 296.261719 109.863281 296.441406 C 110.128906 296.617188 110.410156 296.765625 110.703125 296.890625 C 111 297.011719 111.304688 297.101562 111.617188 297.164062 C 111.929688 297.226562 112.246094 297.257812 112.5625 297.257812 C 112.882812 297.257812 113.199219 297.226562 113.511719 297.164062 C 113.824219 297.101562 114.128906 297.011719 114.421875 296.890625 C 114.71875 296.765625 115 296.617188 115.265625 296.441406 C 115.527344 296.261719 115.773438 296.0625 116 295.835938 C 116.226562 295.609375 116.425781 295.363281 116.605469 295.097656 C 116.78125 294.835938 116.929688 294.554688 117.054688 294.257812 C 117.175781 293.964844 117.269531 293.660156 117.328125 293.347656 C 117.390625 293.035156 117.421875 292.71875 117.421875 292.398438 C 117.421875 292.082031 117.390625 291.765625 117.328125 291.453125 C 117.269531 291.140625 117.175781 290.835938 117.054688 290.539062 C 116.929688 290.246094 116.78125 289.964844 116.605469 289.699219 C 116.425781 289.433594 116.226562 289.191406 116 288.964844 C 115.773438 288.738281 115.527344 288.539062 115.265625 288.359375 C 115 288.183594 114.71875 288.03125 114.421875 287.910156 C 114.128906 287.789062 113.824219 287.695312 113.511719 287.632812 C 113.199219 287.570312 112.882812 287.542969 112.5625 287.542969 Z M 112.5625 287.542969 "/>
<path style=" stroke:none;fill-rule:nonzero;fill:rgb(49.409485%,66.268921%,69.40918%);fill-opacity:1;" d="M 78.730469 287.542969 C 78.335938 287.542969 77.941406 287.578125 77.550781 287.65625 C 77.160156 287.734375 76.785156 287.851562 76.417969 288 C 76.050781 288.152344 75.699219 288.339844 75.371094 288.5625 C 75.039062 288.78125 74.734375 289.03125 74.453125 289.3125 C 74.171875 289.59375 73.921875 289.902344 73.699219 290.230469 C 73.480469 290.5625 73.292969 290.910156 73.140625 291.277344 C 72.988281 291.644531 72.875 292.023438 72.796875 292.414062 C 72.71875 292.800781 72.679688 293.195312 72.679688 293.59375 C 72.679688 293.992188 72.71875 294.382812 72.796875 294.773438 C 72.875 295.164062 72.988281 295.542969 73.140625 295.910156 C 73.292969 296.277344 73.480469 296.625 73.699219 296.957031 C 73.921875 297.285156 74.171875 297.59375 74.453125 297.875 C 74.734375 298.15625 75.039062 298.40625 75.371094 298.625 C 75.699219 298.847656 76.050781 299.035156 76.417969 299.1875 C 76.785156 299.335938 77.160156 299.453125 77.550781 299.53125 C 77.941406 299.609375 78.335938 299.644531 78.730469 299.644531 C 79.128906 299.644531 79.523438 299.609375 79.914062 299.53125 C 80.304688 299.453125 80.679688 299.335938 81.046875 299.1875 C 81.414062 299.035156 81.765625 298.847656 82.09375 298.625 C 82.425781 298.40625 82.730469 298.15625 83.011719 297.875 C 83.292969 297.59375 83.542969 297.285156 83.765625 296.957031 C 83.984375 296.625 84.171875 296.277344 84.324219 295.910156 C 84.476562 295.542969 84.589844 295.164062 84.667969 294.773438 C 84.746094 294.382812 84.785156 293.992188 84.785156 293.59375 C 84.785156 293.195312 84.746094 292.800781 84.667969 292.414062 C 84.589844 292.023438 84.476562 291.644531 84.324219 291.277344 C 84.171875 290.910156 83.984375 290.5625 83.765625 290.230469 C 83.542969 289.902344 83.292969 289.59375 83.011719 289.3125 C 82.730469 289.03125 82.425781 288.78125 82.09375 288.5625 C 81.765625 288.339844 81.414062 288.152344 81.046875 288 C 80.679688 287.851562 80.304688 287.734375 79.914062 287.65625 C 79.523438 287.578125 79.128906 287.542969 78.730469 287.542969 Z M 78.730469 287.542969 "/>
<path style=" stroke:none;fill-rule:nonzero;fill:rgb(49.409485%,66.268921%,69.40918%);fill-opacity:1;" d="M 42.632812 287.542969 C 42.164062 287.542969 41.703125 287.585938 41.242188 287.679688 C 40.785156 287.769531 40.335938 287.90625 39.90625 288.082031 C 39.472656 288.261719 39.0625 288.480469 38.671875 288.742188 C 38.285156 289.003906 37.925781 289.296875 37.59375 289.628906 C 37.261719 289.960938 36.96875 290.320312 36.707031 290.707031 C 36.445312 291.097656 36.226562 291.507812 36.046875 291.941406 C 35.871094 292.371094 35.734375 292.820312 35.644531 293.277344 C 35.550781 293.738281 35.503906 294.199219 35.503906 294.667969 C 35.503906 295.136719 35.550781 295.597656 35.644531 296.058594 C 35.734375 296.515625 35.871094 296.964844 36.046875 297.394531 C 36.226562 297.828125 36.445312 298.238281 36.707031 298.628906 C 36.96875 299.015625 37.261719 299.375 37.59375 299.707031 C 37.925781 300.039062 38.285156 300.332031 38.671875 300.59375 C 39.0625 300.855469 39.472656 301.074219 39.90625 301.253906 C 40.335938 301.429688 40.785156 301.566406 41.242188 301.65625 C 41.703125 301.75 42.164062 301.792969 42.632812 301.792969 C 43.101562 301.792969 43.5625 301.75 44.023438 301.65625 C 44.480469 301.566406 44.925781 301.429688 45.359375 301.253906 C 45.792969 301.074219 46.203125 300.855469 46.59375 300.59375 C 46.980469 300.332031 47.339844 300.039062 47.671875 299.707031 C 48.003906 299.375 48.296875 299.015625 48.558594 298.628906 C 48.820312 298.238281 49.039062 297.828125 49.21875 297.394531 C 49.394531 296.964844 49.53125 296.515625 49.621094 296.058594 C 49.714844 295.597656 49.757812 295.136719 49.757812 294.667969 C 49.757812 294.199219 49.714844 293.738281 49.621094 293.277344 C 49.53125 292.820312 49.394531 292.371094 49.21875 291.941406 C 49.039062 291.507812 48.820312 291.097656 48.558594 290.707031 C 48.296875 290.320312 48.003906 289.960938 47.671875 289.628906 C 47.339844 289.296875 46.980469 289.003906 46.59375 288.742188 C 46.203125 288.480469 45.792969 288.261719 45.359375 288.082031 C 44.925781 287.90625 44.480469 287.769531 44.023438 287.679688 C 43.5625 287.585938 43.101562 287.542969 42.632812 287.542969 Z M 42.632812 287.542969 "/>
<g clip-path="url(#clip14-invert)" clip-rule="nonzero">
<path style=" stroke:none;fill-rule:nonzero;fill:rgb(49.409485%,66.268921%,69.40918%);fill-opacity:1;" d="M 163.832031 288.886719 L 141.800781 277.519531 C 141.460938 277.347656 141.335938 276.921875 141.519531 276.589844 C 146.125 268.125 155.078125 262.390625 165.355469 262.429688 C 180.035156 262.480469 192.097656 274.476562 192.300781 289.234375 C 192.511719 304.433594 180.324219 316.820312 165.257812 316.820312 C 157.976562 316.820312 151.371094 313.925781 146.507812 309.222656 C 146.234375 308.957031 146.226562 308.515625 146.496094 308.25 L 164.117188 290.761719 C 164.679688 290.199219 164.535156 289.25 163.832031 288.886719 Z M 163.832031 288.886719 "/>
</g>
<path style=" stroke:none;fill-rule:nonzero;fill:rgb(18.818665%,20.388794%,23.139954%);fill-opacity:1;" d="M 163.351562 277.101562 C 163.351562 277.527344 163.433594 277.933594 163.59375 278.324219 C 163.753906 278.714844 163.984375 279.058594 164.28125 279.359375 C 164.578125 279.65625 164.921875 279.886719 165.3125 280.050781 C 165.699219 280.210938 166.105469 280.292969 166.523438 280.292969 C 166.945312 280.292969 167.351562 280.210938 167.738281 280.050781 C 168.128906 279.886719 168.46875 279.65625 168.765625 279.359375 C 169.066406 279.058594 169.292969 278.714844 169.457031 278.324219 C 169.617188 277.933594 169.695312 277.527344 169.695312 277.101562 C 169.695312 276.679688 169.617188 276.273438 169.457031 275.882812 C 169.292969 275.492188 169.066406 275.144531 168.765625 274.847656 C 168.46875 274.546875 168.128906 274.316406 167.738281 274.15625 C 167.351562 273.996094 166.945312 273.914062 166.523438 273.914062 C 166.105469 273.914062 165.699219 273.996094 165.3125 274.15625 C 164.921875 274.316406 164.578125 274.546875 164.28125 274.847656 C 163.984375 275.144531 163.753906 275.492188 163.59375 275.882812 C 163.433594 276.273438 163.351562 276.679688 163.351562 277.101562 Z M 163.351562 277.101562 "/>
<path style=" stroke:none;fill-rule:nonzero;fill:rgb(18.818665%,20.388794%,23.139954%);fill-opacity:1;" d="M 141.035156 292.027344 C 141.035156 292.304688 141.0625 292.582031 141.113281 292.855469 C 141.167969 293.128906 141.25 293.394531 141.355469 293.652344 C 141.460938 293.910156 141.589844 294.15625 141.746094 294.386719 C 141.898438 294.621094 142.074219 294.832031 142.269531 295.03125 C 142.46875 295.226562 142.679688 295.40625 142.910156 295.558594 C 143.140625 295.714844 143.386719 295.84375 143.640625 295.953125 C 143.898438 296.058594 144.164062 296.140625 144.433594 296.195312 C 144.707031 296.25 144.980469 296.277344 145.257812 296.277344 C 145.535156 296.277344 145.8125 296.25 146.082031 296.195312 C 146.355469 296.140625 146.621094 296.058594 146.875 295.953125 C 147.132812 295.84375 147.375 295.714844 147.605469 295.558594 C 147.835938 295.40625 148.050781 295.226562 148.246094 295.03125 C 148.441406 294.832031 148.617188 294.621094 148.773438 294.386719 C 148.925781 294.15625 149.058594 293.910156 149.164062 293.652344 C 149.269531 293.394531 149.347656 293.128906 149.402344 292.855469 C 149.457031 292.582031 149.484375 292.304688 149.484375 292.027344 C 149.484375 291.746094 149.457031 291.472656 149.402344 291.199219 C 149.347656 290.925781 149.269531 290.660156 149.164062 290.402344 C 149.058594 290.144531 148.925781 289.898438 148.773438 289.664062 C 148.617188 289.433594 148.441406 289.21875 148.246094 289.023438 C 148.050781 288.824219 147.835938 288.648438 147.605469 288.492188 C 147.375 288.339844 147.132812 288.207031 146.875 288.101562 C 146.621094 287.996094 146.355469 287.914062 146.082031 287.859375 C 145.8125 287.804688 145.535156 287.777344 145.257812 287.777344 C 144.980469 287.777344 144.707031 287.804688 144.433594 287.859375 C 144.164062 287.914062 143.898438 287.996094 143.640625 288.101562 C 143.386719 288.207031 143.140625 288.339844 142.910156 288.492188 C 142.679688 288.648438 142.46875 288.824219 142.269531 289.023438 C 142.074219 289.21875 141.898438 289.433594 141.746094 289.664062 C 141.589844 289.898438 141.460938 290.144531 141.355469 290.402344 C 141.25 290.660156 141.167969 290.925781 141.113281 291.199219 C 141.0625 291.472656 141.035156 291.746094 141.035156 292.027344 Z M 141.035156 292.027344 "/>
<path style=" stroke:none;fill-rule:nonzero;fill:rgb(49.409485%,66.268921%,69.40918%);fill-opacity:1;" d="M 144.410156 287.542969 C 144.144531 287.542969 143.878906 287.566406 143.617188 287.621094 C 143.355469 287.671875 143.101562 287.75 142.855469 287.851562 C 142.605469 287.953125 142.371094 288.078125 142.152344 288.226562 C 141.929688 288.375 141.722656 288.542969 141.535156 288.730469 C 141.347656 288.921875 141.175781 289.125 141.027344 289.347656 C 140.878906 289.570312 140.753906 289.804688 140.652344 290.050781 C 140.550781 290.296875 140.472656 290.550781 140.421875 290.8125 C 140.371094 291.074219 140.34375 291.339844 140.34375 291.609375 C 140.34375 291.875 140.371094 292.140625 140.421875 292.402344 C 140.472656 292.664062 140.550781 292.917969 140.652344 293.164062 C 140.753906 293.410156 140.878906 293.644531 141.027344 293.867188 C 141.175781 294.089844 141.347656 294.292969 141.535156 294.484375 C 141.722656 294.671875 141.929688 294.839844 142.152344 294.988281 C 142.371094 295.136719 142.605469 295.261719 142.855469 295.363281 C 143.101562 295.464844 143.355469 295.542969 143.617188 295.597656 C 143.878906 295.648438 144.144531 295.675781 144.410156 295.675781 C 144.675781 295.675781 144.941406 295.648438 145.203125 295.597656 C 145.464844 295.542969 145.71875 295.464844 145.964844 295.363281 C 146.210938 295.261719 146.445312 295.136719 146.667969 294.988281 C 146.890625 294.839844 147.097656 294.671875 147.285156 294.484375 C 147.472656 294.292969 147.644531 294.089844 147.792969 293.867188 C 147.9375 293.644531 148.066406 293.410156 148.167969 293.164062 C 148.269531 292.917969 148.347656 292.664062 148.398438 292.402344 C 148.449219 292.140625 148.476562 291.875 148.476562 291.609375 C 148.476562 291.339844 148.449219 291.074219 148.398438 290.8125 C 148.347656 290.550781 148.269531 290.296875 148.167969 290.050781 C 148.066406 289.804688 147.9375 289.570312 147.792969 289.347656 C 147.644531 289.125 147.472656 288.921875 147.285156 288.730469 C 147.097656 288.542969 146.890625 288.375 146.667969 288.226562 C 146.445312 288.078125 146.210938 287.953125 145.964844 287.851562 C 145.71875 287.75 145.464844 287.671875 145.203125 287.621094 C 144.941406 287.566406 144.675781 287.542969 144.410156 287.542969 Z M 144.410156 287.542969 "/>
<g clip-path="url(#clip15-invert)" clip-rule="nonzero">
<path style=" stroke:none;fill-rule:nonzero;fill:rgb(49.409485%,66.268921%,69.40918%);fill-opacity:1;" d="M 60.296875 45.0625 L 82.328125 33.695312 C 82.667969 33.523438 82.792969 33.101562 82.609375 32.765625 C 78.003906 24.300781 69.050781 18.570312 58.773438 18.605469 C 44.09375 18.65625 32.03125 30.65625 31.828125 45.414062 C 31.617188 60.609375 43.804688 72.996094 58.871094 72.996094 C 66.148438 72.996094 72.757812 70.101562 77.621094 65.398438 C 77.894531 65.132812 77.902344 64.695312 77.632812 64.425781 L 60.011719 46.9375 C 59.449219 46.375 59.59375 45.425781 60.296875 45.0625 Z M 60.296875 45.0625 "/>
</g>
<path style=" stroke:none;fill-rule:nonzero;fill:rgb(18.818665%,20.388794%,23.139954%);fill-opacity:1;" d="M 60.777344 33.28125 C 60.777344 33.703125 60.695312 34.109375 60.535156 34.5 C 60.375 34.890625 60.144531 35.234375 59.847656 35.535156 C 59.550781 35.832031 59.207031 36.0625 58.816406 36.226562 C 58.429688 36.386719 58.023438 36.46875 57.605469 36.46875 C 57.183594 36.46875 56.777344 36.386719 56.390625 36.226562 C 56 36.0625 55.660156 35.832031 55.359375 35.535156 C 55.0625 35.234375 54.835938 34.890625 54.671875 34.5 C 54.511719 34.109375 54.433594 33.703125 54.433594 33.28125 C 54.433594 32.855469 54.511719 32.449219 54.671875 32.058594 C 54.835938 31.667969 55.0625 31.324219 55.359375 31.023438 C 55.660156 30.726562 56 30.496094 56.390625 30.332031 C 56.777344 30.171875 57.183594 30.089844 57.605469 30.089844 C 58.023438 30.089844 58.429688 30.171875 58.816406 30.332031 C 59.207031 30.496094 59.550781 30.726562 59.847656 31.023438 C 60.144531 31.324219 60.375 31.667969 60.535156 32.058594 C 60.695312 32.449219 60.777344 32.855469 60.777344 33.28125 Z M 60.777344 33.28125 "/>
<g clip-path="url(#clip16-invert)" clip-rule="nonzero">
<path style=" stroke:none;fill-rule:nonzero;fill:rgb(18.818665%,20.388794%,23.139954%);fill-opacity:1;" d="M 83.09375 48.203125 C 83.09375 48.480469 83.066406 48.757812 83.015625 49.03125 C 82.960938 49.304688 82.878906 49.570312 82.773438 49.828125 C 82.667969 50.085938 82.535156 50.332031 82.382812 50.5625 C 82.230469 50.796875 82.054688 51.011719 81.855469 51.207031 C 81.660156 51.40625 81.449219 51.582031 81.21875 51.734375 C 80.984375 51.890625 80.742188 52.023438 80.488281 52.128906 C 80.230469 52.234375 79.964844 52.316406 79.695312 52.371094 C 79.421875 52.425781 79.148438 52.453125 78.871094 52.453125 C 78.59375 52.453125 78.316406 52.425781 78.046875 52.371094 C 77.773438 52.316406 77.507812 52.234375 77.253906 52.128906 C 76.996094 52.023438 76.753906 51.890625 76.523438 51.734375 C 76.292969 51.582031 76.078125 51.40625 75.882812 51.207031 C 75.683594 51.011719 75.511719 50.796875 75.355469 50.5625 C 75.203125 50.332031 75.070312 50.085938 74.964844 49.828125 C 74.859375 49.570312 74.777344 49.304688 74.726562 49.03125 C 74.671875 48.757812 74.644531 48.480469 74.644531 48.203125 C 74.644531 47.925781 74.671875 47.648438 74.726562 47.375 C 74.777344 47.101562 74.859375 46.835938 74.964844 46.578125 C 75.070312 46.320312 75.203125 46.074219 75.355469 45.84375 C 75.511719 45.609375 75.683594 45.394531 75.882812 45.199219 C 76.078125 45 76.292969 44.824219 76.523438 44.671875 C 76.753906 44.515625 76.996094 44.382812 77.253906 44.277344 C 77.507812 44.171875 77.773438 44.089844 78.046875 44.035156 C 78.316406 43.980469 78.59375 43.953125 78.871094 43.953125 C 79.148438 43.953125 79.421875 43.980469 79.695312 44.035156 C 79.964844 44.089844 80.230469 44.171875 80.488281 44.277344 C 80.742188 44.382812 80.984375 44.515625 81.21875 44.671875 C 81.449219 44.824219 81.660156 45 81.855469 45.199219 C 82.054688 45.394531 82.230469 45.609375 82.382812 45.84375 C 82.535156 46.074219 82.667969 46.320312 82.773438 46.578125 C 82.878906 46.835938 82.960938 47.101562 83.015625 47.375 C 83.066406 47.648438 83.09375 47.925781 83.09375 48.203125 Z M 83.09375 48.203125 "/>
</g>
<path style=" stroke:none;fill-rule:nonzero;fill:rgb(49.409485%,66.268921%,69.40918%);fill-opacity:1;" d="M 112.433594 44.402344 C 112.113281 44.402344 111.796875 44.433594 111.484375 44.492188 C 111.171875 44.554688 110.867188 44.648438 110.574219 44.769531 C 110.277344 44.890625 109.996094 45.042969 109.734375 45.21875 C 109.46875 45.398438 109.222656 45.597656 108.996094 45.824219 C 108.769531 46.050781 108.570312 46.292969 108.390625 46.558594 C 108.214844 46.824219 108.066406 47.105469 107.941406 47.398438 C 107.820312 47.695312 107.730469 48 107.667969 48.3125 C 107.605469 48.625 107.574219 48.941406 107.574219 49.257812 C 107.574219 49.578125 107.605469 49.894531 107.667969 50.207031 C 107.730469 50.519531 107.820312 50.824219 107.941406 51.117188 C 108.066406 51.414062 108.214844 51.695312 108.390625 51.960938 C 108.570312 52.222656 108.769531 52.46875 108.996094 52.695312 C 109.222656 52.921875 109.46875 53.121094 109.734375 53.300781 C 109.996094 53.476562 110.277344 53.625 110.574219 53.75 C 110.867188 53.871094 111.171875 53.960938 111.484375 54.023438 C 111.796875 54.085938 112.113281 54.117188 112.433594 54.117188 C 112.75 54.117188 113.066406 54.085938 113.378906 54.023438 C 113.691406 53.960938 113.996094 53.871094 114.292969 53.75 C 114.585938 53.625 114.867188 53.476562 115.132812 53.300781 C 115.398438 53.121094 115.640625 52.921875 115.867188 52.695312 C 116.09375 52.46875 116.296875 52.222656 116.472656 51.960938 C 116.648438 51.695312 116.800781 51.414062 116.921875 51.117188 C 117.042969 50.824219 117.136719 50.519531 117.199219 50.207031 C 117.261719 49.894531 117.292969 49.578125 117.292969 49.257812 C 117.292969 48.941406 117.261719 48.625 117.199219 48.3125 C 117.136719 48 117.042969 47.695312 116.921875 47.398438 C 116.800781 47.105469 116.648438 46.824219 116.472656 46.558594 C 116.296875 46.292969 116.09375 46.050781 115.867188 45.824219 C 115.640625 45.597656 115.398438 45.398438 115.132812 45.21875 C 114.867188 45.042969 114.585938 44.890625 114.292969 44.769531 C 113.996094 44.648438 113.691406 44.554688 113.378906 44.492188 C 113.066406 44.433594 112.75 44.402344 112.433594 44.402344 Z M 112.433594 44.402344 "/>
<path style=" stroke:none;fill-rule:nonzero;fill:rgb(49.409485%,66.268921%,69.40918%);fill-opacity:1;" d="M 148.355469 44.402344 C 147.957031 44.402344 147.5625 44.4375 147.175781 44.515625 C 146.785156 44.59375 146.40625 44.710938 146.039062 44.859375 C 145.671875 45.011719 145.324219 45.199219 144.992188 45.421875 C 144.660156 45.640625 144.355469 45.890625 144.074219 46.171875 C 143.792969 46.453125 143.542969 46.761719 143.324219 47.089844 C 143.101562 47.421875 142.914062 47.769531 142.761719 48.136719 C 142.609375 48.503906 142.496094 48.882812 142.417969 49.273438 C 142.339844 49.664062 142.300781 50.054688 142.300781 50.453125 C 142.300781 50.851562 142.339844 51.246094 142.417969 51.632812 C 142.496094 52.023438 142.609375 52.402344 142.761719 52.769531 C 142.914062 53.136719 143.101562 53.484375 143.324219 53.816406 C 143.542969 54.144531 143.792969 54.453125 144.074219 54.734375 C 144.355469 55.015625 144.660156 55.265625 144.992188 55.484375 C 145.324219 55.707031 145.671875 55.894531 146.039062 56.046875 C 146.40625 56.195312 146.785156 56.3125 147.175781 56.390625 C 147.5625 56.46875 147.957031 56.503906 148.355469 56.503906 C 148.753906 56.503906 149.144531 56.46875 149.535156 56.390625 C 149.925781 56.3125 150.304688 56.195312 150.671875 56.046875 C 151.039062 55.894531 151.386719 55.707031 151.71875 55.484375 C 152.046875 55.265625 152.355469 55.015625 152.632812 54.734375 C 152.914062 54.453125 153.167969 54.144531 153.386719 53.816406 C 153.609375 53.484375 153.792969 53.136719 153.945312 52.769531 C 154.097656 52.402344 154.214844 52.023438 154.292969 51.632812 C 154.367188 51.246094 154.40625 50.851562 154.40625 50.453125 C 154.40625 50.054688 154.367188 49.664062 154.292969 49.273438 C 154.214844 48.882812 154.097656 48.503906 153.945312 48.136719 C 153.792969 47.769531 153.609375 47.421875 153.386719 47.089844 C 153.167969 46.761719 152.914062 46.453125 152.632812 46.171875 C 152.355469 45.890625 152.046875 45.640625 151.71875 45.421875 C 151.386719 45.199219 151.039062 45.011719 150.671875 44.859375 C 150.304688 44.710938 149.925781 44.59375 149.535156 44.515625 C 149.144531 44.4375 148.753906 44.402344 148.355469 44.402344 Z M 148.355469 44.402344 "/>
<path style=" stroke:none;fill-rule:nonzero;fill:rgb(49.409485%,66.268921%,69.40918%);fill-opacity:1;" d="M 186.183594 44.402344 C 185.714844 44.402344 185.25 44.445312 184.792969 44.539062 C 184.332031 44.628906 183.886719 44.765625 183.453125 44.941406 C 183.023438 45.121094 182.613281 45.339844 182.222656 45.601562 C 181.832031 45.863281 181.472656 46.15625 181.140625 46.488281 C 180.8125 46.820312 180.515625 47.179688 180.257812 47.566406 C 179.996094 47.957031 179.777344 48.367188 179.597656 48.800781 C 179.417969 49.230469 179.285156 49.679688 179.191406 50.136719 C 179.101562 50.597656 179.054688 51.058594 179.054688 51.527344 C 179.054688 51.996094 179.101562 52.457031 179.191406 52.917969 C 179.285156 53.375 179.417969 53.824219 179.597656 54.253906 C 179.777344 54.6875 179.996094 55.097656 180.257812 55.488281 C 180.515625 55.875 180.8125 56.234375 181.140625 56.566406 C 181.472656 56.898438 181.832031 57.191406 182.222656 57.453125 C 182.613281 57.714844 183.023438 57.933594 183.453125 58.113281 C 183.886719 58.289062 184.332031 58.425781 184.792969 58.515625 C 185.25 58.609375 185.714844 58.652344 186.183594 58.652344 C 186.648438 58.652344 187.113281 58.609375 187.570312 58.515625 C 188.03125 58.425781 188.476562 58.289062 188.910156 58.113281 C 189.339844 57.933594 189.753906 57.714844 190.140625 57.453125 C 190.53125 57.191406 190.890625 56.898438 191.222656 56.566406 C 191.550781 56.234375 191.847656 55.875 192.109375 55.488281 C 192.367188 55.097656 192.585938 54.6875 192.765625 54.253906 C 192.945312 53.824219 193.082031 53.375 193.171875 52.917969 C 193.261719 52.457031 193.308594 51.996094 193.308594 51.527344 C 193.308594 51.058594 193.261719 50.597656 193.171875 50.136719 C 193.082031 49.679688 192.945312 49.230469 192.765625 48.800781 C 192.585938 48.367188 192.367188 47.957031 192.109375 47.566406 C 191.847656 47.179688 191.550781 46.820312 191.222656 46.488281 C 190.890625 46.15625 190.53125 45.863281 190.140625 45.601562 C 189.753906 45.339844 189.339844 45.121094 188.910156 44.941406 C 188.476562 44.765625 188.03125 44.628906 187.570312 44.539062 C 187.113281 44.445312 186.648438 44.402344 186.183594 44.402344 Z M 186.183594 44.402344 "/>
<path style=" stroke:none;fill-rule:nonzero;fill:rgb(49.409485%,66.268921%,69.40918%);fill-opacity:1;" d="M 79.734375 43.394531 C 79.46875 43.394531 79.203125 43.421875 78.941406 43.472656 C 78.679688 43.523438 78.425781 43.601562 78.179688 43.703125 C 77.929688 43.804688 77.695312 43.929688 77.476562 44.078125 C 77.253906 44.226562 77.046875 44.398438 76.859375 44.585938 C 76.671875 44.773438 76.5 44.980469 76.351562 45.203125 C 76.203125 45.421875 76.078125 45.65625 75.976562 45.90625 C 75.875 46.152344 75.796875 46.40625 75.746094 46.667969 C 75.695312 46.929688 75.667969 47.195312 75.667969 47.460938 C 75.667969 47.726562 75.695312 47.992188 75.746094 48.253906 C 75.796875 48.515625 75.875 48.769531 75.976562 49.015625 C 76.078125 49.265625 76.203125 49.5 76.351562 49.71875 C 76.5 49.941406 76.671875 50.148438 76.859375 50.335938 C 77.046875 50.523438 77.253906 50.695312 77.476562 50.84375 C 77.695312 50.992188 77.929688 51.117188 78.179688 51.21875 C 78.425781 51.320312 78.679688 51.398438 78.941406 51.449219 C 79.203125 51.5 79.46875 51.527344 79.734375 51.527344 C 80 51.527344 80.265625 51.5 80.527344 51.449219 C 80.789062 51.398438 81.042969 51.320312 81.289062 51.21875 C 81.539062 51.117188 81.773438 50.992188 81.992188 50.84375 C 82.214844 50.695312 82.421875 50.523438 82.609375 50.335938 C 82.796875 50.148438 82.96875 49.941406 83.117188 49.71875 C 83.265625 49.5 83.390625 49.265625 83.492188 49.015625 C 83.59375 48.769531 83.671875 48.515625 83.722656 48.253906 C 83.773438 47.992188 83.800781 47.726562 83.800781 47.460938 C 83.800781 47.195312 83.773438 46.929688 83.722656 46.667969 C 83.671875 46.40625 83.59375 46.152344 83.492188 45.90625 C 83.390625 45.65625 83.265625 45.421875 83.117188 45.203125 C 82.96875 44.980469 82.796875 44.773438 82.609375 44.585938 C 82.421875 44.398438 82.214844 44.226562 81.992188 44.078125 C 81.773438 43.929688 81.539062 43.804688 81.289062 43.703125 C 81.042969 43.601562 80.789062 43.523438 80.527344 43.472656 C 80.265625 43.421875 80 43.394531 79.734375 43.394531 Z M 79.734375 43.394531 "/>
</g>
</svg>
