<?xml version="1.0" encoding="UTF-8"?>
<svg xmlns="http://www.w3.org/2000/svg" xmlns:xlink="http://www.w3.org/1999/xlink" width="224.87999pt" height="337.499995pt" viewBox="0 0 224.87999 337.499995" version="1.2">
<defs>
<clipPath id="clip1-jump">
  <path d="M 1 0 L 224 0 L 224 337 L 1 337 Z M 1 0 "/>
</clipPath>
</defs>
<g id="surface1-jump">
<g clip-path="url(#clip1-jump)" clip-rule="nonzero">
<path style=" stroke:none;fill-rule:nonzero;fill:rgb(23.919678%,27.839661%,37.649536%);fill-opacity:1;" d="M 197.785156 337.503906 L 27.535156 337.503906 C 13.394531 337.503906 1.871094 325.984375 1.871094 311.851562 L 1.871094 25.65625 C 1.871094 11.519531 13.394531 0.00390625 27.535156 0.00390625 L 197.785156 0.00390625 C 211.925781 0.00390625 223.449219 11.519531 223.449219 25.65625 L 223.449219 311.851562 C 223.449219 325.984375 211.925781 337.503906 197.785156 337.503906 Z M 197.785156 337.503906 "/>
</g>
<path style=" stroke:none;fill-rule:nonzero;fill:rgb(23.919678%,27.839661%,37.649536%);fill-opacity:1;" d="M 192.03125 331.34375 L 33.265625 331.34375 C 19.125 331.34375 7.601562 319.839844 7.601562 305.71875 L 7.601562 31.402344 C 7.601562 17.28125 19.125 5.777344 33.265625 5.777344 L 192.03125 5.777344 C 206.175781 5.777344 217.699219 17.28125 217.699219 31.402344 L 217.699219 305.71875 C 217.699219 319.839844 206.175781 331.34375 192.03125 331.34375 Z M 192.03125 331.34375 "/>
<path style=" stroke:none;fill-rule:nonzero;fill:rgb(49.409485%,66.268921%,69.40918%);fill-opacity:1;" d="M 109.535156 232.875 C 91.546875 232.875 74.605469 225.875 61.894531 213.136719 C 49.15625 200.425781 42.15625 183.484375 42.15625 165.496094 C 42.15625 147.507812 49.15625 130.566406 61.894531 117.855469 C 74.605469 105.117188 91.546875 98.117188 109.535156 98.117188 C 127.523438 98.117188 144.464844 105.117188 157.175781 117.855469 C 169.914062 130.59375 176.914062 147.507812 176.914062 165.496094 C 176.914062 183.484375 169.914062 200.425781 157.175781 213.136719 C 144.464844 225.875 127.523438 232.875 109.535156 232.875 Z M 109.535156 102.15625 C 92.621094 102.15625 76.707031 108.753906 64.75 120.710938 C 52.792969 132.667969 46.195312 148.582031 46.195312 165.496094 C 46.195312 182.410156 52.792969 198.324219 64.75 210.28125 C 76.707031 222.238281 92.621094 228.835938 109.535156 228.835938 C 126.449219 228.835938 142.363281 222.238281 154.320312 210.28125 C 166.277344 198.324219 172.875 182.410156 172.875 165.496094 C 172.875 148.582031 166.277344 132.667969 154.320312 120.710938 C 142.363281 108.753906 126.449219 102.15625 109.535156 102.15625 Z M 109.535156 102.15625 "/>
<path style=" stroke:none;fill-rule:nonzero;fill:rgb(49.409485%,66.268921%,69.40918%);fill-opacity:1;" d="M 113.636719 232.875 C 95.648438 232.875 78.707031 225.875 65.996094 213.136719 C 53.257812 200.425781 46.257812 183.484375 46.257812 165.496094 C 46.257812 147.507812 53.257812 130.566406 65.996094 117.855469 C 78.707031 105.117188 95.648438 98.117188 113.636719 98.117188 C 131.628906 98.117188 148.566406 105.117188 161.277344 117.855469 C 174.015625 130.59375 181.019531 147.507812 181.019531 165.496094 C 181.019531 183.484375 174.015625 200.425781 161.277344 213.136719 C 148.566406 225.875 131.628906 232.875 113.636719 232.875 Z M 113.636719 102.15625 C 96.726562 102.15625 80.808594 108.753906 68.851562 120.710938 C 56.894531 132.667969 50.296875 148.582031 50.296875 165.496094 C 50.296875 182.410156 56.894531 198.324219 68.851562 210.28125 C 80.808594 222.238281 96.726562 228.835938 113.636719 228.835938 C 130.550781 228.835938 146.464844 222.238281 158.421875 210.28125 C 170.378906 198.324219 176.976562 182.410156 176.976562 165.496094 C 176.976562 148.582031 170.378906 132.667969 158.421875 120.710938 C 146.464844 108.753906 130.550781 102.15625 113.636719 102.15625 Z M 113.636719 102.15625 "/>
<path style=" stroke:none;fill-rule:nonzero;fill:rgb(49.409485%,66.268921%,69.40918%);fill-opacity:1;" d="M 112.207031 235.742188 C 94.214844 235.742188 77.277344 228.738281 64.566406 216 C 51.828125 203.289062 44.824219 186.351562 44.824219 168.359375 C 44.824219 150.371094 51.828125 133.433594 64.566406 120.71875 C 77.277344 107.980469 94.214844 100.980469 112.207031 100.980469 C 130.195312 100.980469 147.132812 107.980469 159.84375 120.71875 C 172.582031 133.457031 179.585938 150.371094 179.585938 168.359375 C 179.585938 186.351562 172.582031 203.289062 159.84375 216 C 147.132812 228.738281 130.195312 235.742188 112.207031 235.742188 Z M 112.207031 105.019531 C 95.292969 105.019531 79.375 111.617188 67.417969 123.574219 C 55.460938 135.53125 48.863281 151.449219 48.863281 168.359375 C 48.863281 185.273438 55.460938 201.1875 67.417969 213.144531 C 79.375 225.105469 95.292969 231.703125 112.207031 231.703125 C 129.117188 231.703125 145.035156 225.105469 156.992188 213.144531 C 168.949219 201.1875 175.546875 185.273438 175.546875 168.359375 C 175.546875 151.449219 168.949219 135.53125 156.992188 123.574219 C 145.035156 111.617188 129.117188 105.019531 112.207031 105.019531 Z M 112.207031 105.019531 "/>
<path style="fill:none;stroke-width:1;stroke-linecap:round;stroke-linejoin:miter;stroke:rgb(100%,100%,100%);stroke-opacity:1;stroke-miterlimit:4;" d="M 0.500091 -0.0000240993 L 11.735562 -0.0000459103 " transform="matrix(6.150983,8.469282,-8.136487,5.909284,73.95891,115.077233)"/>
<path style=" stroke:none;fill-rule:nonzero;fill:rgb(49.409485%,66.268921%,69.40918%);fill-opacity:1;" d="M 111.132812 232.1875 C 93.144531 232.1875 76.207031 225.183594 63.496094 212.445312 C 50.757812 199.734375 43.753906 182.796875 43.753906 164.804688 C 43.753906 146.816406 50.757812 129.878906 63.496094 117.164062 C 76.207031 104.425781 93.144531 97.425781 111.132812 97.425781 C 129.125 97.425781 146.0625 104.425781 158.773438 117.164062 C 171.511719 129.902344 178.515625 146.816406 178.515625 164.804688 C 178.515625 182.796875 171.511719 199.734375 158.773438 212.445312 C 146.0625 225.183594 129.125 232.1875 111.132812 232.1875 Z M 111.132812 101.464844 C 94.222656 101.464844 78.304688 108.0625 66.347656 120.019531 C 54.390625 131.976562 47.792969 147.894531 47.792969 164.804688 C 47.792969 181.71875 54.390625 197.632812 66.347656 209.59375 C 78.304688 221.550781 94.222656 228.148438 111.132812 228.148438 C 128.046875 228.148438 143.964844 221.550781 155.921875 209.59375 C 167.878906 197.632812 174.476562 181.71875 174.476562 164.804688 C 174.476562 147.894531 167.878906 131.976562 155.921875 120.019531 C 143.964844 108.0625 128.046875 101.464844 111.132812 101.464844 Z M 111.132812 101.464844 "/>
<path style=" stroke:none;fill-rule:nonzero;fill:rgb(49.409485%,66.268921%,69.40918%);fill-opacity:1;" d="M 112.207031 235.742188 C 94.214844 235.742188 77.277344 228.738281 64.566406 216 C 51.828125 203.289062 44.824219 186.351562 44.824219 168.359375 C 44.824219 150.371094 51.828125 133.433594 64.566406 120.71875 C 77.277344 107.980469 94.214844 100.980469 112.207031 100.980469 C 130.195312 100.980469 147.132812 107.980469 159.84375 120.71875 C 172.582031 133.457031 179.585938 150.371094 179.585938 168.359375 C 179.585938 186.351562 172.582031 203.289062 159.84375 216 C 147.132812 228.738281 130.195312 235.742188 112.207031 235.742188 Z M 112.207031 105.019531 C 95.292969 105.019531 79.375 111.617188 67.417969 123.574219 C 55.460938 135.53125 48.863281 151.449219 48.863281 168.359375 C 48.863281 185.273438 55.460938 201.1875 67.417969 213.144531 C 79.375 225.105469 95.292969 231.703125 112.207031 231.703125 C 129.117188 231.703125 145.035156 225.105469 156.992188 213.144531 C 168.949219 201.1875 175.546875 185.273438 175.546875 168.359375 C 175.546875 151.449219 168.949219 135.53125 156.992188 123.574219 C 145.035156 111.617188 129.117188 105.019531 112.207031 105.019531 Z M 112.207031 105.019531 "/>
<path style=" stroke:none;fill-rule:nonzero;fill:rgb(49.409485%,66.268921%,69.40918%);fill-opacity:1;" d="M 109.535156 232.875 C 91.546875 232.875 74.605469 225.875 61.894531 213.136719 C 49.15625 200.425781 42.15625 183.484375 42.15625 165.496094 C 42.15625 147.507812 49.15625 130.566406 61.894531 117.855469 C 74.605469 105.117188 91.546875 98.117188 109.535156 98.117188 C 127.523438 98.117188 144.464844 105.117188 157.175781 117.855469 C 169.914062 130.59375 176.914062 147.507812 176.914062 165.496094 C 176.914062 183.484375 169.914062 200.425781 157.175781 213.136719 C 144.464844 225.875 127.523438 232.875 109.535156 232.875 Z M 109.535156 102.15625 C 92.621094 102.15625 76.707031 108.753906 64.75 120.710938 C 52.792969 132.667969 46.195312 148.582031 46.195312 165.496094 C 46.195312 182.410156 52.792969 198.324219 64.75 210.28125 C 76.707031 222.238281 92.621094 228.835938 109.535156 228.835938 C 126.449219 228.835938 142.363281 222.238281 154.320312 210.28125 C 166.277344 198.324219 172.875 182.410156 172.875 165.496094 C 172.875 148.582031 166.277344 132.667969 154.320312 120.710938 C 142.363281 108.753906 126.449219 102.15625 109.535156 102.15625 Z M 109.535156 102.15625 "/>
<path style=" stroke:none;fill-rule:nonzero;fill:rgb(49.409485%,66.268921%,69.40918%);fill-opacity:1;" d="M 115.238281 232.1875 C 97.246094 232.1875 80.308594 225.183594 67.597656 212.445312 C 54.859375 199.734375 47.855469 182.796875 47.855469 164.804688 C 47.855469 146.816406 54.859375 129.878906 67.597656 117.164062 C 80.308594 104.425781 97.246094 97.425781 115.238281 97.425781 C 133.226562 97.425781 150.164062 104.425781 162.878906 117.164062 C 175.617188 129.902344 182.617188 146.816406 182.617188 164.804688 C 182.617188 182.796875 175.617188 199.734375 162.878906 212.445312 C 150.164062 225.183594 133.226562 232.1875 115.238281 232.1875 Z M 115.238281 101.464844 C 98.324219 101.464844 82.410156 108.0625 70.453125 120.019531 C 58.492188 131.976562 51.894531 147.894531 51.894531 164.804688 C 51.894531 181.71875 58.492188 197.632812 70.453125 209.59375 C 82.410156 221.550781 98.324219 228.148438 115.238281 228.148438 C 132.148438 228.148438 148.066406 221.550781 160.023438 209.59375 C 171.980469 197.632812 178.578125 181.71875 178.578125 164.804688 C 178.578125 147.894531 171.980469 131.976562 160.023438 120.019531 C 148.066406 108.0625 132.148438 101.464844 115.238281 101.464844 Z M 115.238281 101.464844 "/>
<path style=" stroke:none;fill-rule:nonzero;fill:rgb(49.409485%,66.268921%,69.40918%);fill-opacity:1;" d="M 113.636719 232.875 C 95.648438 232.875 78.707031 225.875 65.996094 213.136719 C 53.257812 200.425781 46.257812 183.484375 46.257812 165.496094 C 46.257812 147.507812 53.257812 130.566406 65.996094 117.855469 C 78.707031 105.117188 95.648438 98.117188 113.636719 98.117188 C 131.628906 98.117188 148.566406 105.117188 161.277344 117.855469 C 174.015625 130.59375 181.019531 147.507812 181.019531 165.496094 C 181.019531 183.484375 174.015625 200.425781 161.277344 213.136719 C 148.566406 225.875 131.628906 232.875 113.636719 232.875 Z M 113.636719 102.15625 C 96.726562 102.15625 80.808594 108.753906 68.851562 120.710938 C 56.894531 132.667969 50.296875 148.582031 50.296875 165.496094 C 50.296875 182.410156 56.894531 198.324219 68.851562 210.28125 C 80.808594 222.238281 96.726562 228.835938 113.636719 228.835938 C 130.550781 228.835938 146.464844 222.238281 158.421875 210.28125 C 170.378906 198.324219 176.976562 182.410156 176.976562 165.496094 C 176.976562 148.582031 170.378906 132.667969 158.421875 120.710938 C 146.464844 108.753906 130.550781 102.15625 113.636719 102.15625 Z M 113.636719 102.15625 "/>
<path style=" stroke:none;fill-rule:nonzero;fill:rgb(49.409485%,66.268921%,69.40918%);fill-opacity:1;" d="M 113.804688 235.050781 C 95.816406 235.050781 78.875 228.050781 66.164062 215.3125 C 53.425781 202.601562 46.425781 185.660156 46.425781 167.671875 C 46.425781 149.679688 53.425781 132.742188 66.164062 120.03125 C 78.875 107.292969 95.816406 100.289062 113.804688 100.289062 C 131.792969 100.289062 148.734375 107.292969 161.445312 120.03125 C 174.183594 132.769531 181.183594 149.679688 181.183594 167.671875 C 181.183594 185.660156 174.183594 202.601562 161.445312 215.3125 C 148.734375 228.050781 131.792969 235.050781 113.804688 235.050781 Z M 113.804688 104.328125 C 96.890625 104.328125 80.976562 110.929688 69.019531 122.886719 C 57.0625 134.84375 50.464844 150.757812 50.464844 167.671875 C 50.464844 184.582031 57.0625 200.5 69.019531 212.457031 C 80.976562 224.414062 96.890625 231.011719 113.804688 231.011719 C 130.71875 231.011719 146.632812 224.414062 158.589844 212.457031 C 170.546875 200.5 177.144531 184.582031 177.144531 167.671875 C 177.144531 150.757812 170.546875 134.84375 158.589844 122.886719 C 146.632812 110.929688 130.71875 104.328125 113.804688 104.328125 Z M 113.804688 104.328125 "/>
<path style=" stroke:none;fill-rule:nonzero;fill:rgb(49.409485%,66.268921%,69.40918%);fill-opacity:1;" d="M 183.480469 283.085938 C 183.164062 283.085938 182.847656 283.117188 182.535156 283.179688 C 182.222656 283.242188 181.917969 283.335938 181.621094 283.457031 C 181.328125 283.578125 181.046875 283.730469 180.78125 283.90625 C 180.515625 284.082031 180.273438 284.285156 180.046875 284.511719 C 179.820312 284.734375 179.621094 284.980469 179.441406 285.246094 C 179.265625 285.511719 179.113281 285.792969 178.992188 286.085938 C 178.871094 286.382812 178.777344 286.683594 178.714844 286.996094 C 178.652344 287.3125 178.621094 287.625 178.621094 287.945312 C 178.621094 288.265625 178.652344 288.582031 178.714844 288.894531 C 178.777344 289.207031 178.871094 289.511719 178.992188 289.804688 C 179.113281 290.101562 179.265625 290.378906 179.441406 290.644531 C 179.621094 290.910156 179.820312 291.15625 180.046875 291.382812 C 180.273438 291.605469 180.515625 291.808594 180.78125 291.984375 C 181.046875 292.164062 181.328125 292.3125 181.621094 292.433594 C 181.917969 292.558594 182.222656 292.648438 182.535156 292.710938 C 182.847656 292.773438 183.164062 292.804688 183.480469 292.804688 C 183.800781 292.804688 184.117188 292.773438 184.429688 292.710938 C 184.742188 292.648438 185.046875 292.558594 185.339844 292.433594 C 185.636719 292.3125 185.917969 292.164062 186.179688 291.984375 C 186.445312 291.808594 186.691406 291.605469 186.917969 291.382812 C 187.144531 291.15625 187.34375 290.910156 187.523438 290.644531 C 187.699219 290.378906 187.847656 290.101562 187.972656 289.804688 C 188.09375 289.511719 188.183594 289.207031 188.246094 288.894531 C 188.308594 288.582031 188.339844 288.265625 188.339844 287.945312 C 188.339844 287.625 188.308594 287.3125 188.246094 286.996094 C 188.183594 286.683594 188.09375 286.382812 187.972656 286.085938 C 187.847656 285.792969 187.699219 285.511719 187.523438 285.246094 C 187.34375 284.980469 187.144531 284.734375 186.917969 284.511719 C 186.691406 284.285156 186.445312 284.082031 186.179688 283.90625 C 185.917969 283.730469 185.636719 283.578125 185.339844 283.457031 C 185.046875 283.335938 184.742188 283.242188 184.429688 283.179688 C 184.117188 283.117188 183.800781 283.085938 183.480469 283.085938 Z M 183.480469 283.085938 "/>
<path style=" stroke:none;fill-rule:nonzero;fill:rgb(49.409485%,66.268921%,69.40918%);fill-opacity:1;" d="M 84.945312 59.429688 C 84.546875 59.429688 84.15625 59.464844 83.765625 59.542969 C 83.375 59.621094 82.996094 59.738281 82.628906 59.890625 C 82.261719 60.039062 81.914062 60.226562 81.582031 60.449219 C 81.253906 60.667969 80.945312 60.917969 80.664062 61.199219 C 80.386719 61.480469 80.132812 61.789062 79.914062 62.117188 C 79.691406 62.449219 79.507812 62.796875 79.355469 63.164062 C 79.203125 63.53125 79.085938 63.910156 79.007812 64.300781 C 78.933594 64.691406 78.894531 65.082031 78.894531 65.480469 C 78.894531 65.878906 78.933594 66.273438 79.007812 66.660156 C 79.085938 67.050781 79.203125 67.429688 79.355469 67.796875 C 79.507812 68.164062 79.691406 68.511719 79.914062 68.84375 C 80.132812 69.171875 80.386719 69.480469 80.664062 69.761719 C 80.945312 70.042969 81.253906 70.292969 81.582031 70.511719 C 81.914062 70.734375 82.261719 70.921875 82.628906 71.074219 C 82.996094 71.222656 83.375 71.339844 83.765625 71.417969 C 84.15625 71.496094 84.546875 71.53125 84.945312 71.53125 C 85.34375 71.53125 85.738281 71.496094 86.125 71.417969 C 86.515625 71.339844 86.894531 71.222656 87.261719 71.074219 C 87.628906 70.921875 87.976562 70.734375 88.308594 70.511719 C 88.640625 70.292969 88.945312 70.042969 89.226562 69.761719 C 89.507812 69.480469 89.757812 69.171875 89.976562 68.84375 C 90.199219 68.511719 90.386719 68.164062 90.539062 67.796875 C 90.691406 67.429688 90.804688 67.050781 90.882812 66.660156 C 90.960938 66.273438 91 65.878906 91 65.480469 C 91 65.082031 90.960938 64.691406 90.882812 64.300781 C 90.804688 63.910156 90.691406 63.53125 90.539062 63.164062 C 90.386719 62.796875 90.199219 62.449219 89.976562 62.117188 C 89.757812 61.789062 89.507812 61.480469 89.226562 61.199219 C 88.945312 60.917969 88.640625 60.667969 88.308594 60.449219 C 87.976562 60.226562 87.628906 60.039062 87.261719 59.890625 C 86.894531 59.738281 86.515625 59.621094 86.125 59.542969 C 85.738281 59.464844 85.34375 59.429688 84.945312 59.429688 Z M 84.945312 59.429688 "/>
<path style=" stroke:none;fill-rule:nonzero;fill:rgb(49.409485%,66.268921%,69.40918%);fill-opacity:1;" d="M 49.28125 260.535156 C 48.8125 260.535156 48.351562 260.582031 47.890625 260.671875 C 47.433594 260.761719 46.988281 260.898438 46.554688 261.078125 C 46.121094 261.257812 45.710938 261.476562 45.320312 261.738281 C 44.933594 261.996094 44.574219 262.292969 44.242188 262.621094 C 43.910156 262.953125 43.617188 263.3125 43.355469 263.703125 C 43.097656 264.09375 42.875 264.503906 42.695312 264.933594 C 42.519531 265.367188 42.382812 265.8125 42.292969 266.273438 C 42.199219 266.730469 42.15625 267.195312 42.15625 267.664062 C 42.15625 268.128906 42.199219 268.59375 42.292969 269.050781 C 42.382812 269.511719 42.519531 269.957031 42.695312 270.390625 C 42.875 270.820312 43.097656 271.234375 43.355469 271.621094 C 43.617188 272.011719 43.910156 272.371094 44.242188 272.703125 C 44.574219 273.03125 44.933594 273.328125 45.320312 273.589844 C 45.710938 273.847656 46.121094 274.066406 46.554688 274.246094 C 46.988281 274.425781 47.433594 274.5625 47.890625 274.652344 C 48.351562 274.742188 48.8125 274.789062 49.28125 274.789062 C 49.75 274.789062 50.214844 274.742188 50.671875 274.652344 C 51.132812 274.5625 51.578125 274.425781 52.007812 274.246094 C 52.441406 274.066406 52.851562 273.847656 53.242188 273.589844 C 53.628906 273.328125 53.988281 273.03125 54.320312 272.703125 C 54.652344 272.371094 54.949219 272.011719 55.207031 271.621094 C 55.46875 271.234375 55.6875 270.820312 55.867188 270.390625 C 56.046875 269.957031 56.179688 269.511719 56.273438 269.050781 C 56.363281 268.59375 56.410156 268.128906 56.410156 267.664062 C 56.410156 267.195312 56.363281 266.730469 56.273438 266.273438 C 56.179688 265.8125 56.046875 265.367188 55.867188 264.933594 C 55.6875 264.503906 55.46875 264.09375 55.207031 263.703125 C 54.949219 263.3125 54.652344 262.953125 54.320312 262.621094 C 53.988281 262.292969 53.628906 261.996094 53.242188 261.738281 C 52.851562 261.476562 52.441406 261.257812 52.007812 261.078125 C 51.578125 260.898438 51.132812 260.761719 50.671875 260.671875 C 50.214844 260.582031 49.75 260.535156 49.28125 260.535156 Z M 49.28125 260.535156 "/>
<path style=" stroke:none;fill-rule:nonzero;fill:rgb(49.409485%,66.268921%,69.40918%);fill-opacity:1;" d="M 154.53125 16.710938 C 154.261719 16.710938 154 16.738281 153.738281 16.789062 C 153.476562 16.84375 153.222656 16.917969 152.972656 17.023438 C 152.726562 17.125 152.492188 17.25 152.269531 17.398438 C 152.050781 17.546875 151.84375 17.714844 151.65625 17.902344 C 151.464844 18.09375 151.296875 18.296875 151.148438 18.519531 C 151 18.742188 150.875 18.976562 150.773438 19.222656 C 150.671875 19.46875 150.59375 19.722656 150.542969 19.984375 C 150.488281 20.246094 150.464844 20.511719 150.464844 20.777344 C 150.464844 21.046875 150.488281 21.308594 150.542969 21.570312 C 150.59375 21.832031 150.671875 22.089844 150.773438 22.335938 C 150.875 22.582031 151 22.816406 151.148438 23.039062 C 151.296875 23.257812 151.464844 23.464844 151.65625 23.652344 C 151.84375 23.84375 152.050781 24.011719 152.269531 24.160156 C 152.492188 24.308594 152.726562 24.433594 152.972656 24.535156 C 153.222656 24.636719 153.476562 24.714844 153.738281 24.765625 C 154 24.820312 154.261719 24.84375 154.53125 24.84375 C 154.796875 24.84375 155.0625 24.820312 155.324219 24.765625 C 155.585938 24.714844 155.839844 24.636719 156.085938 24.535156 C 156.332031 24.433594 156.566406 24.308594 156.789062 24.160156 C 157.011719 24.011719 157.21875 23.84375 157.40625 23.652344 C 157.59375 23.464844 157.761719 23.257812 157.910156 23.039062 C 158.058594 22.816406 158.183594 22.582031 158.289062 22.335938 C 158.390625 22.089844 158.464844 21.832031 158.519531 21.570312 C 158.570312 21.308594 158.597656 21.046875 158.597656 20.777344 C 158.597656 20.511719 158.570312 20.246094 158.519531 19.984375 C 158.464844 19.722656 158.390625 19.46875 158.289062 19.222656 C 158.183594 18.976562 158.058594 18.742188 157.910156 18.519531 C 157.761719 18.296875 157.59375 18.09375 157.40625 17.902344 C 157.21875 17.714844 157.011719 17.546875 156.789062 17.398438 C 156.566406 17.25 156.332031 17.125 156.085938 17.023438 C 155.839844 16.917969 155.585938 16.84375 155.324219 16.789062 C 155.0625 16.738281 154.796875 16.710938 154.53125 16.710938 Z M 154.53125 16.710938 "/>
</g>
</svg>
